<?xml version="1.0" standalone="no"?>
<!DOCTYPE svg PUBLIC "-//W3C//DTD SVG 20010904//EN"
 "http://www.w3.org/TR/2001/REC-SVG-20010904/DTD/svg10.dtd">
<svg version="1.0" xmlns="http://www.w3.org/2000/svg"
 width="632.000000pt" height="632.000000pt" viewBox="0 0 632.000000 632.000000"
 preserveAspectRatio="xMidYMid meet">
<metadata>
Created by potrace 1.14, written by Peter Selinger 2001-2017
</metadata>
<g transform="translate(0.000000,632.000000) scale(0.100000,-0.100000)"
fill="#000000" stroke="none">
<path d="M2999 6276 c-2 -2 -53 -7 -114 -10 -60 -4 -119 -9 -130 -11 -11 -2
-49 -7 -85 -10 -36 -3 -93 -12 -125 -21 -33 -8 -71 -17 -85 -20 -50 -10 -300
-85 -406 -120 -657 -219 -1053 -527 -1512 -1172 -152 -214 -358 -667 -448
-985 -73 -259 -95 -447 -89 -752 4 -236 4 -232 41 -495 51 -368 98 -538 209
-765 89 -183 229 -384 415 -595 l31 -35 -6 205 c-3 113 -9 288 -13 390 -4 102
-7 415 -7 695 0 462 3 604 21 920 l5 100 86 170 c275 545 516 924 739 1164
201 217 454 387 772 520 193 81 422 158 487 165 129 12 259 18 397 20 510 6
759 -83 956 -345 l42 -56 0 -1014 0 -1014 307 -180 c169 -99 310 -181 315
-183 4 -2 8 580 8 1294 0 1481 11 1309 -94 1529 -134 279 -313 419 -681 530
-76 23 -164 42 -240 50 -66 7 -145 16 -175 20 -60 7 -615 17 -621 11z"/>
<path d="M5629 4899 c-1 -35 -2 -75 -4 -89 -1 -14 -5 -95 -9 -180 -4 -85 -10
-184 -13 -220 -3 -36 -7 -402 -8 -815 -2 -795 -2 -798 -51 -990 -52 -203 -143
-418 -267 -630 -181 -311 -435 -569 -854 -869 -171 -122 -320 -189 -543 -246
-73 -19 -275 -55 -355 -64 -747 -86 -1063 -33 -1301 216 -65 68 -110 127 -162
210 l-42 68 0 1075 c0 591 -2 1075 -4 1075 -4 0 -445 -272 -592 -365 l-21 -13
-1 -1099 c0 -732 3 -1110 10 -1133 18 -60 125 -267 170 -327 40 -56 99 -118
164 -174 27 -23 104 -52 364 -134 127 -40 438 -112 560 -130 247 -36 561 -44
770 -19 271 32 579 107 905 220 175 61 462 225 679 388 213 160 521 489 658
702 25 38 97 148 161 246 124 190 146 237 267 578 34 96 68 193 76 215 8 22
41 157 74 300 49 209 60 271 56 315 -3 30 -8 91 -11 135 -9 141 -16 229 -20
265 -2 19 -7 64 -10 100 -14 152 -86 456 -156 658 -43 123 -160 360 -232 466
-74 112 -196 272 -231 305 l-26 24 -1 -64z"/>
<path d="M3013 4663 l-283 -95 0 -1524 0 -1524 290 0 290 0 0 1620 c0 891 -3
1620 -7 1619 -5 0 -135 -43 -290 -96z"/>
</g>
</svg>
