<svg width="1955" height="849" viewBox="0 0 1955 849" fill="none" xmlns="http://www.w3.org/2000/svg">
<path d="M649.298 262.95C641.075 260.32 633.318 256.412 626.311 251.369C617.6 245.613 610.047 238.274 604.042 229.734C597.767 221.24 594.426 210.936 594.524 200.377C594.54 195.282 595.483 190.232 597.307 185.475C597.307 185.026 597.307 183.5 597.307 180.717C597.507 178.45 597.867 176.2 598.385 173.983C603.014 151.944 615.213 132.221 632.866 118.233C652.544 102.689 675.048 91.1043 699.133 84.1189C725.804 75.9795 753.361 71.0962 781.205 69.5754C786.592 69.5754 791.98 68.8572 797.368 68.8572H813.62C845.057 68.8669 876.46 70.9061 907.634 74.9619C938.703 79.0018 966.988 83.0417 992.489 86.8122C1012.52 90.1172 1032.73 92.2753 1053.01 93.276C1065.58 80.1689 1074.83 72.9869 1080.76 71.6403C1082.63 71.1212 1084.56 70.8792 1086.5 70.9221C1091.29 70.8578 1096 72.1663 1100.06 74.6926C1101.94 75.6993 1103.5 77.204 1104.58 79.0412C1105.66 80.8785 1106.21 82.9772 1106.17 85.1065C1106.09 87.2862 1105.58 89.4281 1104.65 91.403C1103.72 93.3779 1102.41 95.1449 1100.78 96.5976C1096.34 100.702 1091.57 104.426 1086.5 107.73C1079.34 112.602 1072.74 118.264 1066.84 124.607C1057.7 133.889 1049.55 144.087 1042.5 155.041C1035.87 164.618 1032.13 175.898 1031.73 187.539C1031.53 194.455 1033.4 201.273 1037.12 207.11C1037.51 207.446 1037.83 207.858 1038.06 208.32C1038.3 208.783 1038.43 209.287 1038.46 209.804C1038.58 210.542 1038.53 211.299 1038.3 212.012C1038.08 212.725 1037.68 213.375 1037.16 213.909C1036.64 214.442 1035.99 214.845 1035.28 215.083C1034.57 215.321 1033.82 215.389 1033.08 215.28C1031.11 215.087 1029.19 214.503 1027.45 213.562C1025.71 212.622 1024.17 211.344 1022.93 209.804C1018.34 200.839 1016.47 190.73 1017.54 180.717C1017.61 170.992 1018.51 161.29 1020.24 151.719C1021.73 141.825 1024.76 132.224 1029.21 123.261C1031.55 119.365 1034.16 115.645 1037.03 112.129C1040.44 107.909 1042.95 104.588 1044.84 102.343C1012.33 102.343 979.469 100.099 946.066 96.9567C912.663 93.8146 879.798 92.1987 847.293 92.1987C830.1 92.29 812.924 93.3089 795.841 95.251C776.3 97.3685 756.901 100.636 737.745 105.036C718.611 109.436 700.05 116.034 682.432 124.697C666.189 132.418 651.349 142.795 638.523 155.4C626.423 167.382 618.17 182.697 614.817 199.39C614.394 200.955 614.065 202.544 613.829 204.148C613.696 205.491 613.696 206.844 613.829 208.188C613.605 216.128 616.396 223.858 621.642 229.823C626.777 235.636 632.847 240.551 639.6 244.367C645.139 247.315 650.372 250.803 655.224 254.781C658.367 256.576 659.894 258.462 659.894 260.257C659.894 262.053 658.906 263.13 656.841 263.579C654.318 264.099 651.699 263.881 649.298 262.95ZM716.284 479.936C713.527 479.717 710.794 479.267 708.113 478.589C704.21 477.709 700.37 476.57 696.619 475.178C693.027 473.831 691.052 472.215 690.603 470.42C689.843 457.822 692.026 445.221 696.978 433.612C703.508 415.552 710.971 397.842 719.337 380.555C728.616 361.164 738.313 341.773 748.43 322.381C758.487 303.08 767.915 285.574 776.446 270.042C784.976 254.511 791.352 243.11 795.392 234.133C798.498 228.298 800.334 221.874 800.78 215.28C800.959 213.579 800.959 211.864 800.78 210.163C800.601 209.103 800.268 208.074 799.792 207.11C801.788 199.326 805.23 191.987 809.939 185.475C816.342 175.876 823.584 166.863 831.579 158.542C839.73 149.89 848.93 142.29 858.966 135.919C867.263 130.329 876.98 127.215 886.982 126.942C891.851 127.35 896.649 128.376 901.259 129.994C907.834 132.035 913.939 135.361 919.218 139.779C921.867 141.877 923.894 144.658 925.08 147.821C926.267 150.985 926.568 154.412 925.952 157.734C923.662 155.812 920.846 154.624 917.871 154.323C905.219 155.295 893.278 160.552 884.019 169.225C870.049 181.06 857.458 194.431 846.485 209.085C833.614 225.784 821.013 244.038 808.682 263.848C796.29 283.688 784.617 303.618 773.842 323.728C763.067 343.837 753.459 361.972 745.287 378.85C737.116 395.727 730.831 409.373 726.341 419.787C724.725 423.732 723.375 427.781 722.3 431.906C721.45 434.825 720.997 437.845 720.953 440.884C720.953 447.168 723.198 450.4 727.688 450.4C731.377 450.216 734.921 448.9 737.834 446.629C741.604 444.105 745.016 441.085 747.981 437.652C752.92 431.817 756.961 426.34 761.45 421.133C765.94 415.926 769.173 413.772 772.315 414.67C772.785 415.25 773.011 415.991 772.944 416.734C772.535 420.066 771.127 423.197 768.903 425.712C766.209 429.393 764.593 431.368 764.144 431.817C760.552 436.395 756.152 442.41 751.034 449.772C746.07 457.068 740.514 463.944 734.422 470.33C732.233 473.104 729.49 475.391 726.366 477.045C723.243 478.699 719.809 479.684 716.284 479.936Z" fill="url(#paint0_linear_19_40)"/>
<path d="M956.303 470.42C952.711 470.42 951.813 468.894 953.609 465.752C955.405 462.609 956.841 456.235 960.702 445.462C964.564 434.689 969.143 421.582 974.531 406.231C979.918 390.879 985.575 375.259 991.502 359.279C997.428 343.299 1002.73 328.935 1007.66 316.366C1004.55 320.376 999.703 326.212 993.118 333.872L972.555 358.201C965.282 367.179 958.547 374.271 952.262 380.555C950.915 381.902 950.017 382.62 949.568 382.62C949.119 382.62 947.503 381.184 947.503 378.49C947.458 373.275 948.856 368.148 951.544 363.678C961.511 351.019 971.029 339.169 980.277 327.768C989.526 316.366 998.236 306.312 1005.69 296.347C1003.73 295.444 1002.06 294.02 1000.85 292.231C999.651 290.441 998.963 288.356 998.865 286.202C998.682 284.914 998.803 283.6 999.219 282.367C999.634 281.134 1000.33 280.015 1001.26 279.099C1002.18 278.183 1003.31 277.496 1004.54 277.093C1005.78 276.69 1007.1 276.581 1008.38 276.776C1010.58 276.657 1012.77 277.187 1014.67 278.302C1014.84 278.492 1015.05 278.646 1015.28 278.754C1015.51 278.862 1015.76 278.922 1016.02 278.93C1016.46 278.93 1016.91 279.379 1017.36 280.367C1019.61 277.135 1021.49 274.262 1023.11 271.389C1024.73 268.516 1026.16 265.733 1027.51 262.412C1028.86 259.09 1032.99 250.561 1038.64 239.07C1044.3 227.579 1051.39 213.933 1059.92 198.133C1068.45 182.333 1077.88 166.083 1089.38 149.116C1100.22 132.522 1112.23 116.712 1125.29 101.805C1136.92 88.2359 1150.33 76.3067 1165.16 66.3436C1177.61 57.7431 1192.33 53.0256 1207.46 52.7876C1209.25 52.7876 1211.05 52.7876 1212.84 52.7876C1214.64 52.7876 1216.43 53.3262 1218.23 53.7751C1227.26 54.8928 1235.63 59.0763 1241.94 65.6254C1246.43 71.5995 1248.63 78.9921 1248.13 86.4531C1248.07 92.3276 1247.04 98.1517 1245.08 103.69C1242.99 109.989 1240.16 116.017 1236.64 121.645C1226.56 138.879 1214.51 154.878 1200.72 169.315C1185.08 186.042 1168.47 201.84 1150.98 216.627C1133.02 232.188 1114.76 247.15 1096.2 261.514C1077.64 275.878 1060.64 289.733 1045.2 303.08C1035.66 322.982 1027.29 343.426 1020.15 364.306C1014.31 382.261 1009.82 396.445 1006.68 407.218C1011.62 400.934 1019.07 391.957 1028.95 380.286C1038.82 368.615 1050.14 355.957 1062.8 342.401C1075.46 328.845 1088.48 315.469 1102.04 303.529C1114 292.322 1126.89 282.142 1140.56 273.095C1149.63 266.375 1160.38 262.304 1171.63 261.334C1182.49 261.334 1187.88 266.9 1187.88 278.212C1187.28 290.985 1183.31 303.372 1176.39 314.122C1168.66 327.229 1162.38 338.271 1157.44 347.249C1151.51 359.387 1146.44 371.926 1142.27 384.775C1138.94 394.303 1136.57 404.136 1135.17 414.131C1134.69 415.793 1134.44 417.517 1134.45 419.248V424.276C1134.45 442.231 1140.74 451.208 1153.4 451.208C1163.36 449.792 1172.71 445.555 1180.34 438.999C1192.5 430.128 1204.03 420.408 1214.82 409.912C1226.79 398.72 1237.51 387.797 1246.96 377.144C1254.15 369.616 1260.81 361.607 1266.9 353.174C1267.51 352.52 1268.24 351.999 1269.06 351.643C1269.88 351.288 1270.77 351.106 1271.66 351.109C1272.45 351.073 1273.24 351.244 1273.95 351.606C1274.66 351.968 1275.26 352.508 1275.7 353.174C1276.15 354.001 1276.38 354.927 1276.38 355.867C1276.38 356.808 1276.15 357.733 1275.7 358.56C1269.44 368.657 1262.41 378.261 1254.69 387.288C1244.88 399.402 1234.42 410.971 1223.35 421.941C1212.62 432.616 1201.09 442.459 1188.87 451.388C1181.98 456.448 1174.34 460.415 1166.24 463.148C1157.63 466.414 1148.51 468.146 1139.3 468.265C1131.99 468.236 1124.8 466.385 1118.38 462.879C1114.68 460.642 1111.46 457.699 1108.91 454.218C1106.35 450.737 1104.5 446.785 1103.47 442.59C1101.92 437.074 1101.22 431.351 1101.41 425.622V418.53C1101.44 415.941 1101.68 413.359 1102.13 410.809C1104.39 394.901 1109.31 379.485 1116.67 365.204C1124.58 349.134 1131.85 334.86 1138.67 322.202C1140.47 318.611 1141.91 315.469 1143.07 313.224C1144.02 311.098 1144.57 308.816 1144.69 306.491C1144.69 302.81 1143.16 301.015 1140.02 301.015C1134.64 301.848 1129.53 303.94 1125.11 307.12C1115.55 313.335 1106.54 320.363 1098.18 328.127C1086.7 338.278 1076.19 349.457 1066.75 361.523C1055.7 375.348 1044.84 389.353 1034.24 403.807C1023.65 418.261 1014.4 430.739 1006.5 440.974C1001.94 447.77 996.37 453.826 989.975 458.929C984.974 461.587 979.782 463.867 974.441 465.752C968.694 468.298 962.565 469.876 956.303 470.42ZM1058.4 272.915C1078.88 258.843 1098.52 243.585 1117.21 227.22C1138.45 208.955 1158.45 189.311 1177.11 168.418C1193.78 150.296 1208.19 130.219 1220.03 108.628C1224.65 100.8 1227.41 92.0157 1228.11 82.9519C1228.11 75.2313 1224.7 71.4607 1217.96 71.4607C1214.25 71.5472 1210.6 72.3394 1207.19 73.7949C1202.12 75.9901 1197.35 78.8262 1193 82.2337C1162.91 105.46 1137.06 133.705 1116.58 165.724C1094.69 200.106 1075.25 235.985 1058.4 273.095V272.915Z" fill="url(#paint1_linear_19_40)"/>
<path d="M1319.97 471.856C1301.44 472.395 1283.16 467.529 1267.35 457.851C1260.07 453.314 1254.16 446.901 1250.22 439.286C1246.29 431.671 1244.48 423.136 1244.99 414.58C1245.63 401.477 1248.87 388.631 1254.51 376.785C1260.89 363.578 1269.31 351.459 1279.47 340.875C1292.55 326.5 1306.81 313.256 1322.12 301.284C1337.41 288.968 1353.93 278.258 1371.42 269.324C1385.37 261.718 1400.89 257.446 1416.76 256.846C1421.36 256.782 1425.94 257.448 1430.32 258.821C1437.12 260.869 1442.83 265.514 1446.22 271.748C1449.01 277.326 1450.48 283.468 1450.53 289.703C1450.55 295.438 1449.64 301.137 1447.83 306.581C1446.23 311.586 1443.96 316.356 1441.1 320.765C1431.92 333.948 1420.05 345.026 1406.26 353.264C1391.82 362.386 1376.4 369.855 1360.28 375.528C1347.97 380.16 1335.17 383.353 1322.12 385.044H1320.78C1314.85 385.044 1311.8 383.248 1311.8 379.568C1311.8 377.323 1313.59 376.246 1317.18 376.246C1331.73 373.994 1345.66 368.801 1358.13 360.984C1373.38 352.562 1387.94 342.957 1401.68 332.256C1408.55 326.399 1415 320.07 1420.98 313.314C1427.53 307.119 1431.5 298.691 1432.12 289.703C1432.12 281.623 1428.26 277.494 1420.63 277.494C1416.32 277.53 1412.06 278.479 1408.14 280.277C1403.83 282.072 1400.33 283.419 1397.64 284.317C1382.09 292.459 1367.61 302.501 1354.54 314.212C1338.7 327.633 1324.31 342.678 1311.62 359.099C1299.6 373.842 1290.46 390.713 1284.68 408.834C1283.37 412.192 1282.43 415.685 1281.89 419.248C1281.47 422.523 1281.26 425.821 1281.27 429.123C1280.85 433.539 1281.6 437.985 1283.45 442.019C1285.29 446.052 1288.16 449.531 1291.77 452.106C1299.37 456.773 1308.18 459.113 1317.09 458.839C1333.02 458.636 1348.74 455.247 1363.34 448.874C1379.71 442.015 1395.28 433.375 1409.76 423.108C1424.29 413.095 1437.98 401.927 1450.71 389.712C1462.03 378.896 1472.54 367.253 1482.13 354.88C1482.66 354.056 1483.36 353.357 1484.18 352.83C1485 352.303 1485.93 351.961 1486.89 351.827C1488.69 351.827 1489.77 351.827 1490.22 352.815C1491.06 352.989 1491.8 353.474 1492.3 354.173C1492.8 354.872 1493.02 355.733 1492.91 356.585C1492.91 358.579 1492.45 360.546 1491.56 362.331C1477.97 380.892 1462.6 398.09 1445.68 413.682C1428.1 430.202 1408.3 444.192 1386.86 455.248C1366.24 466.129 1343.28 471.829 1319.97 471.856Z" fill="url(#paint2_linear_19_40)"/>
<path d="M1507.37 468.445C1499.69 468.558 1492.12 466.704 1485.37 463.058C1478.08 458.423 1472.87 451.154 1470.82 442.769C1470.36 441.457 1470.03 440.104 1469.83 438.729C1469.69 437.147 1469.69 435.554 1469.83 433.971C1470.27 422.459 1472.33 411.067 1475.94 400.126C1479.84 386.734 1484.73 373.651 1490.57 360.984C1487.88 364.575 1484.65 368.974 1481.06 374.091C1477.47 379.209 1472.62 386.032 1465.43 394.111C1464.65 394.952 1463.71 395.624 1462.66 396.087C1461.61 396.55 1460.47 396.794 1459.33 396.804C1456.18 396.804 1454.66 395.009 1454.66 391.328C1454.61 390.08 1454.83 388.837 1455.29 387.678C1455.76 386.518 1456.46 385.468 1457.35 384.595C1469.02 369.693 1479.5 356.406 1488.78 344.735C1496.41 335.356 1503.28 325.39 1509.34 314.93C1509.43 314.607 1509.43 314.265 1509.34 313.942C1509.26 313.79 1509.22 313.62 1509.22 313.449C1509.22 313.277 1509.26 313.108 1509.34 312.955C1509.56 310.79 1510.27 308.704 1511.41 306.85C1514.41 297.452 1518.14 288.298 1522.54 279.469C1526.31 272.018 1530.53 267.888 1535.02 266.99C1535.92 267.126 1536.82 267.126 1537.72 266.99C1538.61 266.903 1539.51 266.903 1540.41 266.99C1544.88 266.693 1549.35 267.494 1553.43 269.324C1555.31 270.252 1556.89 271.702 1557.97 273.501C1559.06 275.299 1559.6 277.371 1559.54 279.469C1559.18 284.698 1557.67 289.785 1555.14 294.371C1552.17 300.207 1548.49 307.389 1544 316.007C1534.06 336.715 1525.09 355.508 1517.06 372.386C1510.36 385.403 1505.9 399.454 1503.86 413.951C1503.45 415.626 1503.24 417.344 1503.24 419.069V424.096C1503.24 442.051 1509.07 451.028 1521.19 451.028C1531.2 450.006 1540.7 446.143 1548.58 439.896C1560.87 431.18 1572.4 421.45 1583.06 410.809C1595.03 399.318 1605.75 388.276 1615.21 377.682C1622.39 370.154 1629.05 362.146 1635.14 353.713C1635.65 353.12 1636.26 352.632 1636.96 352.278C1637.65 351.924 1638.41 351.71 1639.18 351.648C1640.03 351.63 1640.86 351.807 1641.63 352.166C1642.39 352.524 1643.06 353.053 1643.58 353.713C1644.1 354.514 1644.38 355.45 1644.38 356.406C1644.38 357.362 1644.1 358.298 1643.58 359.099C1637.68 369.346 1630.77 378.971 1622.93 387.827C1612.84 399.739 1602.14 411.126 1590.87 421.941C1579.95 432.539 1568.3 442.377 1556.03 451.388C1549.31 456.36 1541.9 460.322 1534.04 463.148C1525.55 466.562 1516.51 468.358 1507.37 468.445ZM1581.09 226.053C1575.06 226.022 1569.05 225.451 1563.13 224.347C1560.29 223.863 1557.76 222.282 1556.08 219.947C1554.4 217.613 1553.71 214.711 1554.15 211.868C1554.15 210.522 1557.2 207.38 1563.13 202.352C1569.05 197.325 1575.52 192.387 1581.98 187.18C1588.45 181.973 1592.49 179.011 1593.84 178.203C1597.7 174.292 1602.27 171.154 1607.31 168.956C1609.55 168.956 1609.55 171.919 1607.31 177.934C1605.27 182.866 1604.14 188.129 1603.98 193.465C1603.4 197.522 1602.03 201.426 1599.94 204.956C1597.27 210.224 1594.08 215.216 1590.43 219.858C1586.89 224.227 1583.78 226.412 1581.09 226.412V226.053Z" fill="url(#paint3_linear_19_40)"/>
<path d="M1815.72 468.445C1808.25 468.507 1800.89 466.652 1794.35 463.058C1787.12 458.385 1781.95 451.128 1779.89 442.769C1778.29 437.262 1777.59 431.532 1777.82 425.802C1777.97 414.676 1779.33 403.598 1781.87 392.765C1784.17 382.195 1787.17 371.789 1790.85 361.613C1785.88 364.787 1781.51 368.796 1777.91 373.463C1771.81 380.465 1764.36 388.815 1755.56 398.42C1746.76 408.026 1737.06 417.812 1726.46 427.507C1716.49 436.752 1705.5 444.825 1693.69 451.567C1683.83 457.417 1672.64 460.661 1661.18 460.993C1653.11 460.748 1645.22 458.528 1638.2 454.53C1630.48 450.606 1623.78 444.952 1618.62 438.011C1612.27 430.139 1608.7 420.384 1608.47 410.271C1608.9 396.732 1613.24 383.606 1620.96 372.476C1630.11 358.387 1641.03 345.533 1653.46 334.231C1666.73 321.871 1680.96 310.584 1696.02 300.476C1709.92 291.03 1724.37 282.426 1739.3 274.711C1749.98 269.002 1761.2 264.371 1772.8 260.885C1782.69 258.067 1792.95 256.706 1803.24 256.846C1809.83 256.895 1816.39 257.678 1822.81 259.18C1828.95 260.507 1834.71 263.174 1839.69 266.99C1843.26 268.687 1846.35 271.248 1848.67 274.441C1850.87 277.369 1852.06 280.926 1852.08 284.586C1852.08 288.177 1850.47 289.254 1847.33 287.908C1844 282.696 1838.79 278.967 1832.78 277.494C1826.71 275.884 1820.47 275.069 1814.19 275.07C1793.16 275.999 1772.69 282.171 1754.66 293.025C1733.68 304.336 1714.17 318.174 1696.56 334.231C1688.63 341.427 1681.28 349.231 1674.56 357.573C1665.14 368.822 1656.67 380.833 1649.24 393.483C1642.28 404.216 1638.31 416.613 1637.75 429.393C1637.63 434.931 1639.27 440.365 1642.42 444.924C1643.26 446.531 1644.56 447.846 1646.17 448.695C1647.77 449.544 1649.59 449.888 1651.4 449.682C1660.61 448.604 1669.38 445.104 1676.81 439.537C1688.3 432.092 1699.25 423.842 1709.58 414.849C1720.81 405.154 1731.13 395.817 1740.29 386.839L1759.96 366.999C1762.2 364.755 1766.6 360.176 1773.07 353.174C1779.53 346.172 1786.71 338.63 1794.44 330.551C1802.16 322.471 1808.98 315.469 1815 309.543C1821.02 303.618 1825.06 300.566 1826.85 300.566C1830.61 300.809 1834.33 301.38 1837.99 302.272C1842.64 303.222 1847.11 304.952 1851.19 307.389C1852.02 307.734 1852.76 308.273 1853.34 308.962C1853.92 309.65 1854.33 310.467 1854.53 311.346C1854.73 312.224 1854.72 313.138 1854.5 314.011C1854.28 314.885 1853.85 315.692 1853.25 316.366C1841.71 333.099 1832.27 351.19 1825.15 370.231C1819.39 384.485 1815.2 399.326 1812.66 414.49C1812.22 416.162 1811.98 417.879 1811.95 419.607V424.635C1811.95 442.59 1818.32 451.567 1830.89 451.567C1840.86 450.156 1850.2 445.919 1857.83 439.358C1870 430.487 1881.52 420.767 1892.31 410.271C1904.28 399.079 1914.97 388.156 1924.37 377.503C1931.55 369.975 1938.21 361.966 1944.3 353.533C1944.81 352.811 1945.48 352.221 1946.26 351.814C1947.04 351.406 1947.91 351.194 1948.79 351.194C1949.67 351.194 1950.54 351.406 1951.32 351.814C1952.11 352.221 1952.78 352.811 1953.28 353.533C1953.94 354.347 1954.3 355.361 1954.3 356.406C1954.3 357.451 1953.94 358.465 1953.28 359.279C1946.83 369.519 1939.6 379.244 1931.64 388.366C1921.68 400.222 1911.06 411.521 1899.85 422.211C1889.05 432.699 1877.53 442.418 1865.37 451.298C1858.58 456.306 1851.07 460.27 1843.1 463.058C1834.39 466.524 1825.1 468.35 1815.72 468.445Z" fill="url(#paint4_linear_19_40)"/>
<path d="M716.284 477.243C713.743 477.008 711.222 476.587 708.741 475.986C704.962 475.119 701.243 474.009 697.607 472.664C693.656 471.228 693.207 469.971 693.207 469.791C692.634 457.709 694.782 445.652 699.493 434.51C706.016 416.548 713.449 398.93 721.761 381.722C730.741 362.511 740.618 343.029 750.765 323.638C760.911 304.247 770.43 286.561 778.78 271.299C787.131 256.038 793.686 243.828 797.817 235.389C801.066 229.211 802.992 222.423 803.474 215.459C803.606 213.577 803.606 211.687 803.474 209.804C803.242 208.856 802.942 207.926 802.576 207.021C804.635 199.912 807.883 193.204 812.184 187.18C818.457 177.56 825.611 168.544 833.555 160.248C841.571 151.733 850.62 144.254 860.493 137.984C868.43 132.48 877.778 129.364 887.431 129.006C892.027 129.427 896.552 130.423 900.9 131.969C907.22 133.77 913.113 136.823 918.23 140.946C919.893 142.263 921.269 143.906 922.273 145.774C923.277 147.642 923.887 149.696 924.067 151.809C922.38 150.905 920.503 150.412 918.589 150.373C905.182 151.249 892.492 156.736 882.672 165.904C868.252 178.135 855.296 191.993 844.06 207.2C831.13 223.898 818.379 242.392 805.988 262.142C793.596 281.893 781.923 302.092 771.058 322.112C760.193 342.132 750.675 360.895 742.683 377.682C734.692 394.47 728.137 408.385 723.647 418.71C721.986 422.809 720.577 427.007 719.427 431.278C718.714 434.37 718.353 437.532 718.349 440.704C718.349 451.298 724.276 452.914 727.329 452.914C731.557 452.72 735.627 451.249 739.002 448.694C742.932 445.96 746.493 442.732 749.597 439.088C754.626 433.163 759.205 427.597 763.246 422.39C767.287 417.183 768.544 417.183 769.891 416.914C769.377 419.601 768.17 422.108 766.389 424.186C763.875 427.597 762.348 429.572 761.899 430.021C758.128 434.779 753.638 440.974 748.43 448.694C743.612 455.913 738.141 462.674 732.088 468.894C730.148 471.274 727.749 473.239 725.034 474.674C722.319 476.108 719.344 476.982 716.284 477.243ZM654.237 261.155C652.854 261.113 651.488 260.84 650.196 260.347C642.201 257.969 634.648 254.3 627.837 249.484C619.377 243.928 612.037 236.832 606.197 228.567C600.306 220.488 597.159 210.734 597.218 200.736C597.255 195.951 598.136 191.21 599.822 186.732V185.834C599.822 185.834 599.822 183.949 599.822 181.345C599.948 179.223 600.279 177.119 600.809 175.061C605.321 153.59 617.162 134.357 634.302 120.657C653.97 105.305 676.407 93.8753 700.391 86.9918C726.66 78.9394 753.783 73.998 781.205 72.2687C786.862 71.8198 792.249 71.8198 797.368 71.8198H813.62C844.812 71.7556 875.975 73.7048 906.916 77.6552C937.356 81.6053 965.91 85.6452 991.681 89.5055C1011.84 92.8004 1032.16 94.9584 1052.56 95.9692H1053.73L1054.54 95.0715C1069.8 79.3609 1077.34 75.0517 1080.94 74.2438C1082.74 73.7154 1084.63 73.5028 1086.5 73.6153C1090.77 73.5845 1094.97 74.7341 1098.63 76.937C1100.12 77.709 1101.36 78.8839 1102.22 80.328C1103.08 81.7721 1103.51 83.4277 1103.47 85.1065C1103.39 86.9403 1102.93 88.7373 1102.13 90.3886C1101.32 92.0398 1100.19 93.5108 1098.81 94.7124C1094.37 98.8977 1089.53 102.627 1084.35 105.844C1077.02 110.825 1070.3 116.639 1064.32 123.171C1055 132.51 1046.72 142.835 1039.63 153.964C1032.72 163.967 1028.82 175.746 1028.41 187.899C1028.21 195.355 1030.24 202.7 1034.24 208.996C1034.63 209.313 1034.93 209.711 1035.14 210.163C1035.14 212.317 1034.6 212.946 1032.45 212.946C1029.2 212.493 1026.25 210.824 1024.19 208.277C1022.21 205.764 1019.61 198.761 1019.61 181.345C1019.69 171.773 1020.56 162.225 1022.21 152.797C1023.76 143.172 1026.79 133.845 1031.19 125.146C1033.42 121.414 1035.91 117.844 1038.64 114.463L1050.59 100.099H1045.11C1012.87 99.65 979.739 97.8545 946.335 94.7124C912.932 91.5703 879.978 89.7748 847.472 89.7748C830.19 89.8657 812.925 90.8846 795.751 92.8271C776.097 95.0254 756.581 98.3223 737.296 102.702C717.924 106.994 699.12 113.532 681.264 122.183C664.661 130.021 649.486 140.58 636.368 153.425C623.973 165.649 615.474 181.267 611.944 198.312C611.495 200.018 611.136 201.724 610.866 203.16C610.773 204.655 610.773 206.154 610.866 207.649C610.607 216.457 613.723 225.031 619.576 231.619C624.719 237.572 630.782 242.664 637.535 246.701C642.886 249.577 647.939 252.975 652.62 256.846C655.673 258.641 656.392 259.808 656.392 260.257C656.392 260.706 656.392 260.796 655.494 260.975L654.237 261.155Z" fill="url(#paint5_linear_19_40)"/>
<path d="M955.584 467.727V467.098C956.662 463.866 976.776 407.129 976.776 407.129C982.163 391.867 987.73 376.156 993.657 360.176C999.583 344.196 1004.88 329.922 1009.82 317.264L1005.24 314.661C1002.1 318.7 997.248 324.536 990.783 332.616C984.318 340.695 977.314 348.416 970.131 356.945C962.947 365.473 956.123 372.924 950.017 379.119C949.948 374.373 951.224 369.704 953.699 365.653C963.307 353.443 973.004 341.503 982.163 330.551C991.322 319.598 1000.12 308.825 1007.57 299.04L1009.46 296.616L1006.86 295C1005.3 294.344 1003.96 293.264 1002.99 291.882C1002.03 290.501 1001.47 288.874 1001.38 287.19C1001.38 282.431 1003.35 280.456 1008.2 280.456C1009.79 280.293 1011.38 280.606 1012.78 281.354C1013.25 281.832 1013.84 282.174 1014.49 282.342L1016.37 286.022L1019.16 282.701C1021.49 279.469 1023.47 276.506 1025.08 273.723C1026.74 270.812 1028.24 267.816 1029.57 264.746C1031.37 260.706 1035.05 252.985 1040.71 241.494C1046.37 230.003 1053.46 216.357 1061.9 200.736C1070.34 185.116 1079.86 168.597 1091.26 151.899C1102.13 135.403 1114.13 119.684 1127.18 104.857C1138.69 91.5061 1151.92 79.7336 1166.51 69.8448C1178.54 61.5418 1192.75 56.9815 1207.37 56.7377C1209.04 56.6071 1210.72 56.6071 1212.39 56.7377C1214.11 56.9496 1215.82 57.2493 1217.51 57.6354C1225.71 58.6398 1233.33 62.3708 1239.15 68.2288C1243.27 73.2947 1245.47 79.6551 1245.35 86.1838C1245.25 91.776 1244.28 97.3187 1242.47 102.613C1240.38 108.665 1237.64 114.474 1234.3 119.939C1224.16 136.992 1212.11 152.835 1198.39 167.161C1182.99 183.907 1166.62 199.734 1149.36 214.562C1131.4 230.183 1112.63 245.354 1094.67 259.449C1076.72 273.544 1059.39 287.997 1043.58 301.015V301.553C1033.96 321.522 1025.56 342.059 1018.44 363.049C1012.42 381.004 1008.02 395.278 1004.88 406.051L1009.55 408.475C1014.49 402.281 1021.94 393.214 1031.82 381.543C1041.7 369.872 1053.01 357.214 1065.58 343.837C1078.15 330.461 1091.08 317.533 1104.64 305.055C1116.52 294.008 1129.29 283.949 1142.8 274.98C1151.42 268.49 1161.69 264.541 1172.44 263.579C1181.42 263.579 1185.99 267.888 1185.99 277.763C1185.36 290.03 1181.52 301.917 1174.86 312.237C1167.14 325.344 1160.85 336.386 1155.91 345.364C1149.81 357.901 1144.62 370.862 1140.38 384.146C1137.06 393.865 1134.65 403.874 1133.2 414.041C1132.73 415.798 1132.48 417.609 1132.48 419.428V424.455C1132.48 449.053 1144.24 454.26 1154.12 454.26C1164.72 452.944 1174.69 448.507 1182.76 441.512C1195.03 432.605 1206.65 422.824 1217.51 412.246C1229.19 401.024 1239.96 389.982 1249.75 379.298C1257.03 371.662 1263.78 363.533 1269.95 354.969C1270.69 354.449 1271.57 354.167 1272.47 354.162C1272.81 354.127 1273.16 354.184 1273.47 354.326C1273.79 354.468 1274.06 354.69 1274.26 354.969C1274.26 355.688 1274.26 356.945 1274.26 357.932C1267.91 367.815 1260.83 377.207 1253.07 386.032C1243.06 397.991 1232.42 409.408 1221.19 420.236C1210.54 430.749 1199.14 440.47 1187.07 449.323C1180.38 454.275 1172.96 458.152 1165.07 460.814C1156.47 464.082 1147.34 465.755 1138.13 465.752C1131.25 465.725 1124.49 463.965 1118.47 460.634C1115.09 458.571 1112.15 455.859 1109.82 452.654C1107.49 449.449 1105.83 445.815 1104.91 441.961C1103.44 436.706 1102.77 431.257 1102.94 425.802V418.71C1102.96 416.269 1103.2 413.836 1103.65 411.438C1105.85 395.778 1110.67 380.601 1117.93 366.55C1125.74 350.66 1133.11 336.207 1139.84 323.638C1141.73 319.957 1143.16 316.725 1144.33 314.032C1145.44 311.569 1146.08 308.92 1146.22 306.222C1146.36 305.184 1146.28 304.127 1145.97 303.125C1145.66 302.123 1145.14 301.201 1144.44 300.422C1143.74 299.644 1142.87 299.028 1141.91 298.619C1140.94 298.209 1139.9 298.016 1138.85 298.052C1132.99 298.86 1127.41 301.078 1122.6 304.516C1112.98 310.835 1103.91 317.953 1095.48 325.793C1083.91 336.119 1073.28 347.444 1063.7 359.638C1052.65 373.463 1041.7 387.647 1031.19 401.922C1020.68 416.196 1011.35 428.854 1003.53 439.088C999.266 445.884 993.93 451.947 987.73 457.043C982.829 459.6 977.759 461.82 972.555 463.687C967.311 466.11 961.694 467.627 955.943 468.175L955.584 467.727ZM1217.96 68.947C1213.92 69.0418 1209.93 69.8944 1206.2 71.4607C1200.9 73.8109 1195.92 76.8278 1191.38 80.4382C1161.08 103.927 1134.99 132.404 1114.25 164.647C1092.33 199.149 1072.85 235.148 1055.97 272.377L1051.93 281.354L1059.92 275.968C1080.49 261.87 1100.22 246.582 1119.01 230.183C1140.3 211.63 1160.36 191.718 1179.08 170.572C1195.9 152.293 1210.44 132.034 1222.36 110.243C1227.24 102.047 1230.13 92.8238 1230.8 83.311C1230.8 70.7425 1222.81 68.947 1217.96 68.947Z" fill="url(#paint6_linear_19_40)"/>
<path d="M1319.97 469.163C1301.9 469.592 1284.1 464.791 1268.69 455.338C1261.89 450.981 1256.39 444.87 1252.77 437.65C1249.15 430.429 1247.55 422.366 1248.13 414.311C1248.72 401.577 1251.77 389.078 1257.11 377.503C1263.47 364.643 1271.77 352.834 1281.71 342.491C1294.64 328.236 1308.76 315.111 1323.92 303.259C1339.12 291.126 1355.52 280.569 1372.86 271.748C1386.43 264.37 1401.51 260.194 1416.94 259.539C1421.24 259.481 1425.51 260.118 1429.61 261.424C1432.64 262.286 1435.48 263.746 1437.95 265.719C1440.42 267.693 1442.46 270.139 1443.97 272.915C1446.64 278.207 1448.06 284.045 1448.1 289.973C1448.1 295.434 1447.22 300.859 1445.5 306.042C1443.93 310.816 1441.75 315.372 1439.03 319.598C1430.08 332.441 1418.47 343.216 1405 351.199C1390.75 360.276 1375.51 367.686 1359.57 373.284C1347.44 377.705 1334.85 380.717 1322.03 382.261H1320.95C1314.85 382.261 1314.85 380.286 1314.85 379.478C1314.85 378.67 1315.3 378.85 1317.54 378.85C1332.53 376.596 1346.9 371.279 1359.75 363.229C1375.13 354.725 1389.83 345.061 1403.74 334.321C1410.66 328.326 1417.2 321.91 1423.32 315.109C1430.36 308.418 1434.59 299.306 1435.17 289.613C1435.45 287.653 1435.28 285.656 1434.68 283.77C1434.08 281.884 1433.06 280.16 1431.69 278.726C1430.32 277.292 1428.65 276.185 1426.8 275.49C1424.94 274.795 1422.96 274.528 1420.98 274.711C1416.31 274.772 1411.7 275.78 1407.43 277.673C1403.21 279.469 1399.79 280.726 1397.19 281.623C1381.29 289.741 1366.46 299.782 1353.01 311.518C1337.05 324.95 1322.51 339.992 1309.64 356.406C1297.61 371.443 1288.48 388.581 1282.7 406.949C1281.37 410.484 1280.43 414.158 1279.92 417.902C1279.46 421.264 1279.22 424.653 1279.2 428.046C1278.78 432.903 1279.64 437.785 1281.69 442.209C1283.73 446.634 1286.9 450.447 1290.87 453.273C1298.97 458.227 1308.33 460.723 1317.81 460.455C1333.97 460.396 1349.95 457.162 1364.86 450.939C1381.21 444.105 1396.78 435.527 1411.29 425.353C1425.92 415.202 1439.73 403.915 1452.59 391.598C1464.03 380.712 1474.62 368.978 1484.29 356.496C1484.6 355.977 1485.01 355.531 1485.51 355.19C1486 354.849 1486.57 354.62 1487.16 354.521H1488.24L1488.87 355.598H1489.59C1489.59 355.598 1490.22 355.598 1490.22 356.765C1490.22 358.326 1489.85 359.866 1489.14 361.254C1475.87 379.56 1460.83 396.519 1444.24 411.887C1426.85 428.228 1407.27 442.067 1386.06 453.003C1365.68 463.714 1342.99 469.263 1319.97 469.163Z" fill="url(#paint7_linear_19_40)"/>
<path d="M1507.37 465.752C1500.16 465.862 1493.04 464.098 1486.71 460.634C1480.02 456.379 1475.25 449.679 1473.42 441.961C1473.01 440.766 1472.71 439.533 1472.53 438.28C1472.38 436.848 1472.38 435.404 1472.53 433.971C1472.99 422.733 1475.01 411.613 1478.54 400.934C1482.5 387.635 1487.42 374.642 1493.27 362.062L1488.69 359.368C1485.91 362.959 1482.76 367.358 1479.17 372.565C1475.58 377.772 1470.19 384.326 1463.73 392.316C1463.21 392.875 1462.59 393.323 1461.89 393.632C1461.2 393.941 1460.45 394.104 1459.69 394.111C1458.61 394.111 1457.62 394.111 1457.62 391.328C1457.59 390.427 1457.76 389.53 1458.1 388.695C1458.44 387.861 1458.95 387.106 1459.6 386.48L1490.57 346.351C1498.31 336.878 1505.31 326.824 1511.5 316.277V315.648V314.93C1511.52 314.136 1511.3 313.353 1510.87 312.686C1511.19 311.079 1511.77 309.533 1512.57 308.107C1515.62 298.722 1519.34 289.571 1523.71 280.726C1527.12 274.082 1530.71 270.312 1534.39 269.594C1535.26 269.702 1536.13 269.702 1537 269.594C1537.65 269.506 1538.32 269.506 1538.97 269.594C1543.24 269.559 1547.44 270.61 1551.19 272.646C1552.65 273.344 1553.88 274.454 1554.73 275.842C1555.58 277.229 1556 278.833 1555.94 280.456C1555.57 285.251 1554.17 289.907 1551.81 294.102C1548.85 299.938 1545.17 307.119 1540.68 315.738C1530.71 336.566 1521.82 355.329 1513.74 372.296C1506.93 385.605 1502.37 399.956 1500.27 414.759C1499.87 416.497 1499.66 418.273 1499.64 420.056V425.084C1499.64 449.682 1510.6 454.889 1519.85 454.889C1530.63 453.797 1540.83 449.479 1549.12 442.5C1561.88 433.686 1573.86 423.806 1584.95 412.964C1596.62 401.563 1607.49 390.341 1617.18 379.747C1624.47 372.115 1631.22 363.986 1637.39 355.418C1637.39 355.418 1638.47 354.61 1639.18 354.61C1639.63 354.596 1640.07 354.686 1640.48 354.873C1640.88 355.06 1641.24 355.339 1641.52 355.688C1641.52 355.688 1642.24 356.496 1641.52 358.381C1635.71 368.264 1628.91 377.529 1621.22 386.032C1611.2 397.946 1600.56 409.333 1589.35 420.146C1578.56 430.678 1567.04 440.428 1554.87 449.323C1548.33 454.151 1541.13 458.02 1533.5 460.814C1525.18 464.1 1516.31 465.776 1507.37 465.752ZM1581.09 223.36C1575.06 223.351 1569.06 222.81 1563.13 221.744C1558.1 220.846 1555.85 217.794 1555.85 211.868C1558.42 209.239 1561.14 206.78 1564.03 204.507C1570.04 199.569 1576.33 194.452 1582.88 189.335C1589.44 184.218 1593.21 181.166 1594.56 180.358C1598.17 177.221 1602.05 174.397 1606.14 171.919C1605.8 173.486 1605.32 175.019 1604.7 176.497C1602.55 181.748 1601.36 187.344 1601.2 193.016C1600.59 196.66 1599.31 200.16 1597.43 203.34C1594.93 208.42 1591.92 213.233 1588.45 217.704C1584.41 223.001 1582.07 223.719 1581.09 223.719V223.36Z" fill="url(#paint8_linear_19_40)"/>
<path d="M1815.72 465.752C1808.71 465.806 1801.81 464.043 1795.69 460.634C1789.02 456.358 1784.26 449.667 1782.4 441.961C1780.97 436.7 1780.33 431.252 1780.52 425.802C1780.68 414.86 1782.01 403.966 1784.47 393.303C1786.82 382.862 1789.82 372.578 1793.45 362.511L1795.6 356.855L1789.95 359.099C1788.06 359.817 1784.92 361.972 1776.39 371.668C1770.28 378.67 1762.92 387.019 1754.12 396.625C1745.32 406.231 1736.16 415.927 1725.21 425.532C1715.34 434.58 1704.43 442.416 1692.7 448.874C1683.03 454.567 1672.05 457.66 1660.82 457.851C1653.19 457.599 1645.74 455.504 1639.09 451.747C1631.72 448.012 1625.32 442.6 1620.42 435.946C1614.43 428.53 1611.05 419.349 1610.81 409.822C1611.27 396.802 1615.44 384.186 1622.84 373.463C1631.89 359.593 1642.66 346.923 1654.9 335.758C1668.08 323.638 1682.19 312.562 1697.1 302.631C1710.92 293.285 1725.28 284.771 1740.11 277.135C1750.6 271.531 1761.6 266.961 1772.98 263.489C1782.67 260.757 1792.71 259.427 1802.79 259.539C1809.17 259.607 1815.52 260.36 1821.73 261.783C1827.5 263.024 1832.92 265.506 1837.63 269.055C1840.88 270.687 1843.71 273.053 1845.89 275.968C1847.8 278.568 1848.81 281.72 1848.76 284.945C1848.84 285.36 1848.84 285.787 1848.76 286.202C1845.05 280.801 1839.49 276.939 1833.14 275.339C1826.84 273.65 1820.35 272.804 1813.83 272.826C1792.39 273.671 1771.5 279.842 1753.04 290.78C1731.78 302.11 1712 316.01 1694.14 332.167C1686.15 339.457 1678.74 347.351 1671.96 355.777C1662.44 367.231 1653.88 379.452 1646.37 392.316C1639.14 403.329 1634.96 416.06 1634.24 429.213C1634.12 435.336 1635.94 441.34 1639.45 446.36C1640.55 448.257 1642.16 449.809 1644.1 450.84C1646.03 451.871 1648.22 452.341 1650.41 452.196C1660.19 451.187 1669.5 447.524 1677.35 441.602C1688.94 434.112 1699.98 425.802 1710.39 416.734C1721.82 406.919 1732.12 397.523 1741.28 388.545C1750.26 379.568 1757.26 373.014 1761.3 368.974C1763.55 366.64 1767.95 362.062 1774.5 354.969L1795.87 332.167C1803.42 324.266 1810.33 317.264 1816.44 311.339C1824.07 304.067 1826.13 303.349 1826.49 303.259C1830.04 303.53 1833.55 304.1 1837 304.965C1841.34 305.783 1845.51 307.363 1849.3 309.633C1851.64 311.07 1851.99 312.416 1850.47 314.75C1838.95 331.527 1829.45 349.608 1822.18 368.615C1816.37 383.083 1812.13 398.131 1809.52 413.503C1809.08 415.264 1808.87 417.074 1808.89 418.889V423.916C1808.89 448.515 1820.57 453.722 1830.44 453.722C1841.04 452.405 1851.02 447.968 1859.09 440.974C1871.36 432.067 1882.97 422.286 1893.84 411.707C1905.51 400.485 1916.38 389.443 1926.07 378.76C1933.36 371.128 1940.12 362.999 1946.28 354.431C1946.28 354.431 1947.36 353.623 1948.16 353.623C1948.69 353.65 1949.21 353.792 1949.67 354.041C1950.14 354.289 1950.54 354.637 1950.86 355.059C1950.86 355.059 1951.58 355.957 1950.86 357.663C1944.4 367.74 1937.23 377.341 1929.4 386.391C1919.5 398.135 1908.97 409.343 1897.88 419.966C1887.15 430.348 1875.72 439.977 1863.67 448.784C1857.05 453.7 1849.72 457.575 1841.94 460.275C1833.62 463.718 1824.72 465.575 1815.72 465.752Z" fill="url(#paint9_linear_19_40)"/>
<path d="M527.089 198.223C499.847 171.015 462.916 155.732 424.41 155.732C385.904 155.732 348.973 171.015 321.731 198.223L266.777 253.165C239.101 229.104 203.334 216.421 166.679 217.67C130.024 218.919 95.2038 234.008 69.2309 259.898L0 328.755L7.18349 335.937C34.4372 363.123 71.3639 378.391 109.863 378.391C148.361 378.391 185.288 363.123 212.542 335.937L267.495 280.995C295.153 305.096 330.928 317.806 367.596 316.556C404.263 315.306 439.09 300.19 465.041 274.262L533.913 205.405L527.089 198.223ZM198.264 321.663C176.035 343.825 146.287 356.827 114.92 358.091C83.5522 359.354 52.8548 348.788 28.9136 328.486L82.7898 274.621C105.012 252.421 134.772 239.387 166.161 238.106C197.55 236.826 228.273 247.392 252.23 267.708L198.264 321.663ZM451.123 260.347C428.926 282.56 399.179 295.604 367.799 296.885C336.419 298.166 305.707 287.589 281.773 267.26L335.649 213.395C357.878 191.233 387.626 178.231 418.993 176.967C450.361 175.703 481.058 186.27 505 206.572L451.123 260.347Z" fill="url(#paint10_linear_19_40)"/>
<path style="mix-blend-mode:overlay" opacity="0.3" d="M171.596 236.108C154.923 236.011 138.398 239.232 122.982 245.582C107.566 251.932 93.568 261.284 81.802 273.095L26.9381 328.576L28.285 329.653C52.4411 350.157 83.4053 360.867 115.07 359.671C146.736 358.474 176.803 345.458 199.342 323.189L254.834 267.708L253.577 266.631C230.746 247.041 201.682 236.22 171.596 236.108ZM198.534 321.663C176.304 343.825 146.557 356.827 115.189 358.091C83.8215 359.354 53.1241 348.788 29.1829 328.486L83.0591 274.621C105.282 252.421 135.041 239.387 166.43 238.106C197.819 236.826 228.542 247.392 252.5 267.708L198.534 321.663ZM424.724 174.432C408.051 174.336 391.526 177.557 376.111 183.907C360.695 190.257 346.696 199.609 334.93 211.42L279.438 266.9L280.695 267.978C304.917 288.592 336.017 299.327 367.8 298.046C399.583 296.765 429.717 283.561 452.201 261.065L507.693 205.584L506.347 204.507C483.495 185.065 454.461 174.402 424.455 174.432H424.724ZM451.662 259.898C429.465 282.111 399.717 295.155 368.338 296.436C336.958 297.717 306.246 287.14 282.311 266.811L336.187 212.946C358.417 190.784 388.165 177.782 419.532 176.518C450.9 175.254 481.597 185.821 505.538 206.123L451.662 259.898ZM527.628 198.223C500.386 171.015 463.455 155.732 424.949 155.732C386.443 155.732 349.512 171.015 322.269 198.223L266.777 253.165C239.101 229.104 203.334 216.421 166.679 217.67C130.024 218.919 95.2038 234.008 69.2309 259.898L0 328.755L7.18349 335.937C34.4372 363.123 71.3639 378.391 109.863 378.391C148.361 378.391 185.288 363.123 212.542 335.937L267.495 280.995C295.153 305.096 330.928 317.806 367.596 316.556C404.263 315.306 439.09 300.19 465.041 274.262L533.913 205.405L527.628 198.223ZM464.772 273.095C439.042 298.79 404.523 313.773 368.178 315.022C331.833 316.272 296.367 303.695 268.932 279.828L267.855 278.93L211.464 334.86C198.123 348.202 182.283 358.785 164.85 366.006C147.417 373.226 128.732 376.943 109.863 376.943C90.9928 376.943 72.3079 373.226 54.8749 366.006C37.4419 358.785 21.6024 348.202 8.26102 334.86L2.15505 328.755L69.9493 261.065C95.6791 235.37 130.198 220.387 166.543 219.137C202.888 217.888 238.355 230.465 265.789 254.332L266.867 255.23L323.257 199.3C336.599 185.958 352.438 175.375 369.871 168.154C387.304 160.934 405.989 157.217 424.859 157.217C443.729 157.217 462.413 160.934 479.846 168.154C497.279 175.375 513.119 185.958 526.46 199.3L532.566 205.405L464.772 273.095Z" fill="url(#paint11_linear_19_40)"/>
<path style="mix-blend-mode:multiply" d="M504.73 234.941C500.694 229.397 495.441 224.852 489.375 221.654L451.123 260.347C439.113 272.069 424.847 281.232 409.19 287.279C414.516 293.157 421.121 297.733 428.495 300.656C442.15 293.695 454.608 284.603 465.401 273.723L504.73 234.941Z" fill="url(#paint12_linear_19_40)"/>
<path style="mix-blend-mode:multiply" d="M255.283 293.204C256.526 284.899 254.741 276.424 250.255 269.324L198.265 321.304C180.271 339.253 157.204 351.253 132.176 355.688C129.662 362.69 127.597 369.872 125.801 377.054C158.621 373.599 189.251 358.953 212.542 335.578L255.283 293.204Z" fill="url(#paint13_linear_19_40)"/>
<path style="mix-blend-mode:multiply" d="M32.1462 296.257C37.0761 300.966 42.4601 305.176 48.2193 308.825L83.149 273.903C97.5577 259.566 115.251 248.964 134.691 243.02C129.985 237.058 124.451 231.798 118.258 227.399C99.6948 234.85 82.8785 246.069 68.8719 260.347L32.1462 296.257Z" fill="url(#paint14_linear_19_40)"/>
<path style="mix-blend-mode:multiply" d="M321.731 198.223L293.625 226.322C300.012 229.187 307.097 230.123 314.008 229.015C316.163 229.015 318.318 228.387 320.474 228.118L336.008 212.497C356.747 191.801 384.125 179.084 413.32 176.587L420.324 155.939C383.248 156.851 347.944 171.991 321.731 198.223Z" fill="url(#paint15_linear_19_40)"/>
<path d="M336.008 7.18198L328.824 0L260.402 68.8572C234.584 94.8666 219.545 129.666 218.296 166.289C217.047 202.912 229.681 238.655 253.667 266.362L198.713 321.304C171.5 348.54 156.214 385.463 156.214 423.961C156.214 462.459 171.5 499.382 198.713 526.619L205.897 533.801L274.769 464.944C300.606 438.945 315.658 404.142 316.907 367.513C318.156 330.884 305.51 295.137 281.503 267.439L336.457 212.497C363.611 185.201 378.816 148.244 378.732 109.747C378.648 71.2487 363.281 34.3588 336.008 7.18198ZM260.402 451.028L206.526 504.893C186.219 480.957 175.651 450.266 176.915 418.905C178.179 387.544 191.183 357.803 213.35 335.578L267.226 281.713C287.532 305.649 298.101 336.34 296.837 367.701C295.573 399.062 282.568 428.803 260.402 451.028ZM267.855 252.536C247.652 228.531 237.159 197.839 238.438 166.493C239.718 135.146 252.677 105.411 274.769 83.1314L328.645 29.2666C348.951 53.2027 359.52 83.8937 358.256 115.255C356.992 146.616 343.987 176.357 321.821 198.582L267.855 252.536Z" fill="url(#paint16_linear_19_40)"/>
<path style="mix-blend-mode:overlay" opacity="0.3" d="M266.957 279.379L211.464 334.86C189.101 357.396 175.989 387.487 174.709 419.207C173.43 450.927 184.075 481.976 204.55 506.24L205.628 507.587L261.12 452.106C283.452 429.534 296.541 399.434 297.82 367.711C299.1 335.988 288.476 304.932 268.034 280.636L266.957 279.379ZM260.402 451.028L206.526 504.893C186.219 480.957 175.651 450.266 176.915 418.905C178.179 387.544 191.183 357.803 213.35 335.578L267.226 281.713C287.532 305.649 298.101 336.34 296.837 367.701C295.573 399.062 282.568 428.803 260.402 451.028ZM329.722 27.92L328.645 26.9324L273.152 82.0541C250.821 104.626 237.731 134.726 236.452 166.449C235.173 198.172 245.796 229.228 266.238 253.524L267.316 254.781L323.257 199.3C345.556 176.706 358.586 146.584 359.783 114.865C360.979 83.1466 350.256 52.1291 329.722 27.92ZM321.731 198.492L267.855 252.806C247.652 228.8 237.159 198.109 238.438 166.762C239.718 135.416 252.677 105.681 274.769 83.4008L328.645 29.5359C348.759 53.4426 359.203 84.0064 357.924 115.221C356.645 146.435 343.734 176.042 321.731 198.223V198.492ZM336.008 7.18198L328.824 0L260.402 68.8572C234.584 94.8666 219.545 129.666 218.296 166.289C217.047 202.912 229.681 238.655 253.667 266.362L198.713 321.304C171.5 348.54 156.214 385.463 156.214 423.961C156.214 462.459 171.5 499.382 198.713 526.619L205.897 533.801L274.769 464.944C300.606 438.945 315.658 404.142 316.907 367.513C318.156 330.884 305.51 295.137 281.503 267.439L336.457 212.497C363.611 185.201 378.816 148.244 378.732 109.747C378.648 71.2487 363.281 34.3588 336.008 7.18198ZM278.989 267.529L279.887 268.606C303.759 296.035 316.339 331.494 315.089 367.832C313.839 404.169 298.853 438.68 273.152 464.405L205.448 532.185L199.342 526.08C172.474 499.153 157.385 462.67 157.385 424.635C157.385 386.599 172.474 350.117 199.342 323.189L255.283 267.259L254.386 266.182C230.514 238.753 217.934 203.294 219.184 166.957C220.433 130.619 235.42 96.1079 261.12 70.3834L328.824 2.24437L334.93 8.25928C348.275 21.5979 358.86 37.434 366.083 54.8633C373.305 72.2926 377.022 90.9736 377.022 109.839C377.022 128.705 373.305 147.386 366.083 164.816C358.86 182.245 348.275 198.081 334.93 211.42L278.989 267.529Z" fill="url(#paint17_radial_19_40)"/>
<path style="mix-blend-mode:multiply" d="M304.311 421.941C303.096 420.044 301.777 418.216 300.36 416.465C297.028 412.472 293.125 408.993 288.776 406.141C282.682 422.982 273 438.298 260.402 451.028L224.484 486.31C227.36 490.547 230.981 494.227 235.17 497.173C236.516 498.16 238.043 498.968 239.569 499.866L274.14 465.303C286.76 452.811 296.985 438.115 304.311 421.941Z" fill="url(#paint18_linear_19_40)"/>
<path style="mix-blend-mode:multiply" d="M229.333 114.283C230.68 115.361 231.847 116.617 233.194 117.695C237.344 120.954 241.692 123.953 246.214 126.672C252.442 110.41 262.018 95.6376 274.32 83.311L310.237 47.4011C305.472 42.397 299.845 38.2916 293.625 35.2815L260.402 68.8573C247.228 81.8674 236.68 97.2896 229.333 114.283Z" fill="url(#paint19_linear_19_40)"/>
<path d="M336.008 321.663L281.054 266.721C305.061 239.023 317.707 203.276 316.458 166.647C315.209 130.018 300.157 95.2153 274.32 69.2163L205.448 0L198.264 7.18198C171.051 34.4183 155.765 71.3416 155.765 109.839C155.765 148.337 171.051 185.261 198.264 212.497L253.218 267.439C229.232 295.146 216.598 330.889 217.847 367.512C219.096 404.134 234.135 438.934 259.953 464.944L328.824 533.801L336.008 526.619C363.112 499.397 378.328 462.551 378.328 424.141C378.328 385.731 363.112 348.885 336.008 321.663ZM205.717 28.9075L259.594 82.7723C281.685 105.052 294.644 134.787 295.924 166.134C297.203 197.48 286.711 228.172 266.508 252.177L212.631 197.864C190.553 175.669 177.595 146.007 176.315 114.73C175.035 83.4526 185.526 52.8316 205.717 28.9075ZM328.555 505.252L274.679 451.388C252.499 429.174 239.478 399.439 238.198 368.078C236.917 336.717 247.47 306.019 267.765 282.072L321.641 335.937C343.821 358.151 356.841 387.886 358.122 419.247C359.403 450.608 348.85 481.305 328.555 505.252Z" fill="url(#paint20_linear_19_40)"/>
<path style="mix-blend-mode:overlay" opacity="0.3" d="M268.034 253.524C288.476 229.228 299.1 198.172 297.82 166.449C296.541 134.726 283.452 104.626 261.12 82.0541L205.628 26.9324L204.55 28.2791C184.075 52.543 173.43 83.5922 174.709 115.312C175.989 147.032 189.101 177.123 211.464 199.659L266.957 255.14L268.034 253.524ZM212.542 198.223C190.375 175.998 177.37 146.257 176.106 114.896C174.842 83.5346 185.411 52.8436 205.717 28.9075L259.594 82.7723C281.685 105.052 294.644 134.787 295.924 166.134C297.203 197.48 286.711 228.172 266.508 252.177L212.542 198.223ZM336.008 321.663L281.054 266.721C305.061 239.023 317.707 203.276 316.458 166.647C315.209 130.018 300.157 95.2153 274.32 69.2163L205.448 0L198.264 7.18198C171.051 34.4183 155.765 71.3416 155.765 109.839C155.765 148.337 171.051 185.261 198.264 212.497L253.218 267.439C229.232 295.146 216.598 330.889 217.847 367.512C219.096 404.134 234.135 438.934 259.953 464.944L328.824 533.801L336.008 526.619C363.112 499.397 378.328 462.551 378.328 424.141C378.328 385.731 363.112 348.885 336.008 321.663ZM334.93 525.901L328.824 532.005L261.12 464.225C235.42 438.501 220.433 403.989 219.184 367.652C217.934 331.315 230.514 295.855 254.386 268.427L255.283 267.349L199.342 211.42C185.998 198.081 175.412 182.245 168.19 164.816C160.968 147.386 157.25 128.705 157.25 109.839C157.25 90.9736 160.968 72.2926 168.19 54.8633C175.412 37.434 185.998 21.5979 199.342 8.25928L205.448 2.24437L273.152 69.9345C298.853 95.659 313.839 130.17 315.089 166.508C316.339 202.845 303.759 238.305 279.887 265.733L278.989 266.811L334.93 323.189C361.744 350.109 376.798 386.553 376.798 424.545C376.798 462.536 361.744 498.98 334.93 525.901ZM323.257 334.86L267.765 279.379L266.687 280.636C246.245 304.932 235.622 335.988 236.901 367.711C238.18 399.434 251.27 429.534 273.601 452.106L329.094 507.587L330.171 506.24C350.646 481.976 361.292 450.927 360.012 419.207C358.732 387.487 345.62 357.396 323.257 334.86ZM329.004 505.432L275.128 451.567C252.948 429.354 239.927 399.619 238.647 368.257C237.366 336.896 247.919 306.199 268.214 282.252L322.09 336.117C344.155 358.379 357.062 388.108 358.259 419.426C359.457 450.744 348.856 481.372 328.555 505.252L329.004 505.432Z" fill="url(#paint21_radial_19_40)"/>
<path style="mix-blend-mode:multiply" d="M336.008 321.663L320.025 305.234C313.053 306.948 306.78 310.773 302.066 316.187L321.551 335.578C334.767 348.766 344.854 364.751 351.07 382.355C357.287 399.959 359.473 418.732 357.469 437.293C359.636 437.914 361.864 438.305 364.113 438.46C368.77 438.692 373.43 438.053 377.852 436.575C379.689 415.528 376.896 394.335 369.667 374.483C362.438 354.631 350.949 336.602 336.008 321.663Z" fill="url(#paint22_linear_19_40)"/>
<path style="mix-blend-mode:multiply" d="M198.264 212.497L228.615 242.841C235.798 241.315 224.664 210.342 224.664 210.342L212.542 198.223C195.752 181.422 184.102 160.183 178.959 136.996C171.893 133.823 164.635 131.095 157.229 128.827C161.227 160.501 175.666 189.941 198.264 212.497Z" fill="url(#paint23_linear_19_40)"/>
<path d="M465.401 260.347C439.428 234.457 404.608 219.368 367.953 218.119C331.298 216.869 295.531 229.552 267.854 253.614L212.901 198.672C185.659 171.464 148.728 156.181 110.222 156.181C71.7157 156.181 34.7847 171.464 7.54262 198.672L0.359131 205.854L69.2309 274.711C95.1825 300.639 130.009 315.755 166.677 317.005C203.344 318.254 239.119 305.545 266.777 281.444L321.731 336.386C348.984 363.572 385.911 378.84 424.41 378.84C462.908 378.84 499.835 363.572 527.089 336.386L534.272 329.204L465.401 260.347ZM171.596 296.257C155.213 296.395 138.965 293.294 123.786 287.131C108.607 280.968 94.7963 271.866 83.1489 260.347L29.2727 206.482C53.2139 186.18 83.9113 175.614 115.279 176.877C146.646 178.141 176.394 191.143 198.624 213.305L252.949 267.17C230.175 286.267 201.317 296.585 171.596 296.257ZM336.008 321.394L282.132 267.529C306.066 247.199 336.778 236.623 368.158 237.904C399.538 239.184 429.285 252.229 451.483 274.441L505.359 328.306C481.44 348.632 450.755 359.229 419.388 357.999C388.02 356.768 358.261 343.799 336.008 321.663V321.394Z" fill="url(#paint24_linear_19_40)"/>
<path style="mix-blend-mode:overlay" opacity="0.3" d="M465.401 260.347C439.428 234.457 404.608 219.368 367.953 218.119C331.298 216.869 295.531 229.552 267.854 253.614L212.901 198.672C185.659 171.464 148.728 156.181 110.222 156.181C71.7157 156.181 34.7847 171.464 7.54262 198.672L0.359131 205.854L69.2309 274.711C95.1825 300.639 130.009 315.755 166.677 317.005C203.344 318.254 239.119 305.545 266.777 281.444L321.731 336.386C348.984 363.572 385.911 378.84 424.41 378.84C462.908 378.84 499.835 363.572 527.089 336.386L534.272 329.204L465.401 260.347ZM526.011 335.309C499.026 362.057 462.541 377.027 424.542 376.943C386.542 376.859 350.124 361.727 323.257 334.86L267.316 278.93L266.238 279.828C238.804 303.695 203.337 316.272 166.992 315.022C130.647 313.773 96.1281 298.79 70.3982 273.095L2.155 205.405L8.26097 199.3C21.6024 185.958 37.4419 175.375 54.8749 168.154C72.3078 160.934 90.9928 157.217 109.863 157.217C128.732 157.217 147.417 160.934 164.85 168.154C182.283 175.375 198.123 185.958 211.464 199.3L267.406 255.23L268.483 254.332C295.918 230.465 331.384 217.888 367.729 219.137C404.074 220.387 438.593 235.37 464.323 261.065L532.117 328.755L526.011 335.309ZM109.907 174.432C79.8748 174.404 50.8128 185.065 27.9258 204.507L26.9381 205.584L82.4306 261.065C104.914 283.561 135.048 296.765 166.832 298.046C198.615 299.327 229.715 288.592 253.936 267.978L255.194 266.9L199.342 211.42C187.618 199.652 173.678 190.325 158.328 183.976C142.977 177.627 126.52 174.384 109.907 174.432ZM171.596 296.257C155.213 296.395 138.965 293.294 123.786 287.131C108.607 280.968 94.7963 271.866 83.1489 260.347L29.2727 206.482C53.2139 186.18 83.9113 175.614 115.279 176.877C146.646 178.141 176.394 191.143 198.624 213.305L252.949 267.17C230.175 286.267 201.317 296.585 171.596 296.257ZM362.677 236.108C332.647 236.095 303.59 246.754 280.695 266.182L279.438 267.259L334.93 323.189C357.43 345.622 387.54 358.784 419.29 360.064C451.04 361.345 482.112 350.65 506.346 330.102L507.693 329.025L452.201 273.544C440.504 261.684 426.566 252.268 411.197 245.841C395.829 239.414 379.335 236.106 362.677 236.108ZM335.738 321.663L281.862 267.798C305.797 247.468 336.509 236.892 367.889 238.173C399.268 239.454 429.016 252.498 451.213 274.711L505.089 328.576C481.154 348.789 450.508 359.293 419.203 358.013C387.899 356.733 358.212 343.762 336.008 321.663H335.738Z" fill="url(#paint25_radial_19_40)"/>
<path d="M115.385 528.863C109.594 528.906 103.982 526.86 99.578 523.101C95.1742 519.341 92.2741 514.119 91.4099 508.395C86.2912 482.365 90.1532 455.368 102.365 431.817C86.0636 440.57 67.7981 445.019 49.2967 444.744C41.418 444.72 33.5528 444.09 25.7708 442.859C22.386 442.367 19.1424 441.17 16.2498 439.345C13.3572 437.52 10.8803 435.108 8.97936 432.266C7.20831 429.415 6.03275 426.235 5.5235 422.918C5.01424 419.601 5.18183 416.215 6.01617 412.964C7.43546 407.794 10.5168 403.236 14.7847 399.991C19.0527 396.746 24.2701 394.995 29.6319 395.009C32.7126 395.025 35.7613 395.635 38.6113 396.804C58.4305 405.706 79.7603 410.763 101.467 411.707C109.404 412.135 117.333 410.722 124.634 407.577L129.662 404.615L126.699 409.642C126.699 409.642 112.511 435.318 137.474 496.006C138.79 499.188 139.4 502.618 139.26 506.059C139.121 509.5 138.235 512.87 136.666 515.936C135.115 519.063 132.909 521.821 130.197 524.02C127.486 526.22 124.333 527.81 120.952 528.684C119.107 528.931 117.242 528.991 115.385 528.863ZM418.977 528.863C416.922 528.851 414.874 528.611 412.871 528.145C409.52 527.271 406.392 525.695 403.697 523.52C401.001 521.346 398.799 518.623 397.237 515.532C395.674 512.442 394.787 509.055 394.634 505.595C394.481 502.136 395.066 498.683 396.349 495.467C421.312 434.779 407.214 409.373 407.124 409.104L404.071 403.986L409.1 406.949C416.4 410.093 424.329 411.507 432.267 411.079C453.974 410.143 475.306 405.086 495.122 396.176C498.3 394.898 501.711 394.304 505.134 394.435C508.556 394.565 511.913 395.416 514.983 396.933C518.054 398.449 520.77 400.596 522.954 403.235C525.138 405.873 526.74 408.942 527.655 412.241C528.571 415.541 528.78 418.997 528.268 422.383C527.756 425.768 526.535 429.008 524.684 431.89C522.834 434.771 520.396 437.23 517.53 439.104C514.664 440.979 511.435 442.228 508.053 442.769C500.271 444 492.405 444.63 484.527 444.654C466.185 444.881 448.083 440.465 431.907 431.817C444.15 455.358 448.043 482.354 442.952 508.395C442.07 514.112 439.165 519.322 434.765 523.079C430.365 526.835 424.763 528.888 418.977 528.863ZM504.64 139.69C501.561 139.665 498.514 139.055 495.661 137.894C475.845 128.985 454.513 123.927 432.805 122.991C424.868 122.564 416.939 123.977 409.639 127.121L404.61 130.084L407.573 125.056C407.573 125.056 421.761 99.3807 396.798 38.6929C395.511 35.4946 394.916 32.06 395.052 28.6152C395.188 25.1703 396.052 21.7934 397.588 18.7064C399.123 15.6195 401.295 12.8926 403.96 10.7051C406.625 8.51762 409.723 6.91918 413.051 6.01492C415.024 5.55525 417.041 5.31439 419.067 5.29673C424.868 5.25055 430.492 7.29339 434.911 11.0518C439.33 14.8101 442.248 20.033 443.132 25.7654C448.125 51.8267 444.17 78.8101 431.907 102.343C448.215 93.7297 466.446 89.4046 484.886 89.7748C492.769 89.7867 500.637 90.4473 508.412 91.7498C511.737 92.2408 514.921 93.4307 517.754 95.2411C520.586 97.0516 523.003 99.4415 524.844 102.253C527.281 105.92 528.678 110.18 528.885 114.578C529.091 118.976 528.1 123.347 526.018 127.227C523.935 131.106 520.838 134.347 517.057 136.605C513.277 138.863 508.954 140.054 504.551 140.049L504.64 139.69ZM29.6319 139.69C24.2701 139.703 19.0527 137.953 14.7847 134.708C10.5168 131.463 7.43546 126.904 6.01617 121.735C5.10494 118.403 4.89782 114.918 5.408 111.503C5.91817 108.087 7.13446 104.814 8.97936 101.894C10.8293 99.0901 13.2481 96.706 16.0789 94.8965C18.9097 93.087 22.0894 91.8926 25.4116 91.3907C33.3147 90.1912 41.304 89.6507 49.2967 89.7748C67.7667 89.3893 86.0305 93.7148 102.365 102.343C90.1532 78.7914 86.2912 51.7953 91.4099 25.7654C92.2741 20.0404 95.1742 14.819 99.578 11.0593C103.982 7.29949 109.594 5.2535 115.385 5.29673C117.411 5.31439 119.428 5.55525 121.401 6.01492C124.782 6.88824 127.935 8.47873 130.646 10.6784C133.358 12.878 135.564 15.6353 137.115 18.7629C138.684 21.8285 139.569 25.1982 139.709 28.6392C139.849 32.0802 139.239 35.5104 137.923 38.6929C112.871 99.65 127.058 124.787 127.148 125.056L130.201 130.173L125.083 127.121C117.782 123.977 109.853 122.564 101.916 122.991C80.2092 123.936 58.8795 128.993 39.0602 137.894C36.0706 139.122 32.8636 139.733 29.6319 139.69Z" fill="url(#paint26_linear_19_40)"/>
<g style="mix-blend-mode:overlay" opacity="0.3">
<path d="M407.125 125.056L404.161 130.084L409.19 127.121C416.49 123.977 424.419 122.564 432.357 122.991C454.064 123.927 475.396 128.985 495.212 137.894C498.065 139.055 501.112 139.665 504.192 139.69C508.595 139.694 512.918 138.504 516.698 136.246C520.479 133.988 523.576 130.747 525.658 126.868C527.741 122.988 528.732 118.617 528.526 114.219C528.319 109.821 526.922 105.561 524.485 101.894C522.643 99.0824 520.227 96.6925 517.395 94.882C514.562 93.0716 511.378 91.8817 508.053 91.3907C500.387 90.228 492.639 89.6875 484.886 89.7748C466.446 89.4046 448.215 93.7297 431.908 102.343C444.109 78.7889 448 51.8065 442.952 25.7654C442.068 20.033 439.15 14.8101 434.731 11.0518C430.313 7.29339 424.689 5.25055 418.888 5.29673C416.922 5.32738 414.965 5.56815 413.051 6.01492C409.699 6.88869 406.572 8.46514 403.877 10.6397C401.181 12.8142 398.979 15.537 397.416 18.6275C395.854 21.7179 394.967 25.1053 394.814 28.5647C394.661 32.0242 395.245 35.4767 396.529 38.6929C421.312 99.3807 407.214 124.787 407.125 125.056ZM413.051 7.54109C416.108 6.75151 419.296 6.61025 422.411 7.12639C425.526 7.64252 428.498 8.80463 431.137 10.538C433.775 12.2714 436.022 14.5376 437.732 17.191C439.442 19.8445 440.578 22.8263 441.067 25.9449C446.505 53.6724 441.551 82.431 427.149 106.742C451.465 92.343 480.23 87.3902 507.963 92.8271C511.078 93.388 514.042 94.5936 516.664 96.3666C519.286 98.1397 521.509 100.441 523.189 103.123C524.87 105.805 525.971 108.809 526.422 111.941C526.874 115.074 526.666 118.266 525.811 121.313C524.956 124.36 523.474 127.195 521.459 129.637C519.445 132.078 516.942 134.071 514.112 135.488C511.281 136.906 508.186 137.716 505.024 137.868C501.862 138.019 498.704 137.508 495.751 136.368C433.793 110.782 408.471 125.685 408.471 125.685C408.471 125.685 423.467 100.278 397.786 37.9747C396.599 34.9867 396.058 31.7814 396.197 28.5694C396.337 25.3574 397.154 22.2112 398.596 19.3372C400.037 16.4633 402.07 13.9266 404.562 11.8936C407.053 9.86066 409.946 8.37737 413.051 7.54109Z" fill="url(#paint27_linear_19_40)"/>
<path d="M127.148 409.104L130.111 404.076L125.083 407.039C117.782 410.183 109.853 411.596 101.916 411.168C80.2092 410.224 58.8795 405.167 39.0602 396.266C36.2103 395.096 33.1616 394.486 30.0809 394.47C24.5712 394.387 19.1952 396.169 14.8263 399.526C10.4575 402.883 7.35261 407.619 6.01618 412.964C5.18184 416.215 5.01425 419.601 5.5235 422.918C6.03276 426.235 7.20832 429.415 8.97937 432.266C10.8408 435.068 13.2613 437.455 16.089 439.278C18.9166 441.101 22.0905 442.32 25.4116 442.859C33.1936 444.09 41.0588 444.72 48.9376 444.744C67.5601 445.081 85.957 440.629 102.365 431.817C90.1532 455.368 86.2913 482.365 91.41 508.395C92.2741 514.119 95.1742 519.341 99.578 523.101C103.982 526.86 109.594 528.906 115.385 528.863C117.411 528.846 119.428 528.605 121.401 528.145C124.782 527.272 127.935 525.681 130.646 523.482C133.358 521.282 135.564 518.525 137.115 515.397C138.684 512.331 139.569 508.962 139.709 505.521C139.849 502.08 139.239 498.649 137.923 495.467C112.96 434.779 127.058 409.373 127.148 409.104ZM121.042 526.619C118.012 527.411 114.85 527.568 111.756 527.08C108.662 526.592 105.703 525.47 103.063 523.784C100.424 522.098 98.162 519.884 96.4193 517.282C94.6765 514.68 93.4907 511.746 92.9365 508.664C87.4983 480.936 92.4523 452.178 106.854 427.867C82.5381 442.266 53.7734 447.219 26.0402 441.782C20.1936 440.174 15.2252 436.311 12.2277 431.041C9.23026 425.772 8.4494 419.527 10.0569 413.682C11.6644 407.837 15.5286 402.869 20.7994 399.873C26.0701 396.876 32.3158 396.095 38.1623 397.702C100.479 423.378 125.711 408.385 125.711 408.385C125.711 408.385 110.626 433.702 136.307 496.006C137.524 499.003 138.089 502.226 137.965 505.459C137.841 508.692 137.03 511.862 135.586 514.757C134.142 517.653 132.099 520.208 129.591 522.253C127.083 524.298 124.169 525.786 121.042 526.619Z" fill="url(#paint28_linear_19_40)"/>
<path d="M121.401 6.01483C119.428 5.55515 117.411 5.3143 115.385 5.29663C109.594 5.25341 103.982 7.29939 99.578 11.0592C95.1741 14.8189 92.2741 20.0403 91.4099 25.7653C86.2912 51.7952 90.1531 78.7913 102.365 102.343C86.0304 93.7147 67.7667 89.3892 49.2967 89.7747C41.4139 89.7891 33.5455 90.4496 25.7707 91.7497C22.4146 92.1612 19.1835 93.2778 16.2896 95.0262C13.3957 96.7746 10.9044 99.1152 8.97932 101.894C7.12327 104.742 5.87085 107.94 5.29942 111.291C4.72799 114.641 4.84967 118.074 5.65695 121.375C7.07624 126.545 10.1576 131.104 14.4255 134.349C18.6935 137.594 23.9109 139.344 29.2727 139.33C32.3534 139.314 35.4021 138.705 38.2521 137.535C58.0713 128.634 79.401 123.577 101.108 122.632C109.045 122.204 116.974 123.618 124.274 126.762L129.393 129.814L126.34 124.697C126.34 124.697 112.062 99.2908 137.115 38.3337C138.431 35.1512 139.04 31.721 138.901 28.28C138.761 24.839 137.876 21.4693 136.307 18.4037C134.804 15.4279 132.705 12.7926 130.141 10.6614C127.577 8.53021 124.602 6.94864 121.401 6.01483ZM136.486 38.1542C110.805 100.458 125.711 125.685 125.711 125.685C125.711 125.685 100.299 110.602 37.9827 136.278C35.0298 137.418 31.8712 137.929 28.7093 137.778C25.5475 137.626 22.4522 136.816 19.6219 135.398C16.7917 133.981 14.289 131.988 12.2743 129.547C10.2596 127.106 8.77734 124.271 7.92267 121.223C7.06799 118.176 6.85972 114.984 7.3112 111.851C7.76269 108.719 8.86397 105.715 10.5444 103.033C12.2249 100.351 14.4474 98.0498 17.0695 96.2768C19.6916 94.5037 22.6553 93.2981 25.7707 92.7373C53.504 87.3003 82.2687 92.2532 106.585 106.652C92.1828 82.3411 87.2289 53.5825 92.667 25.8551C94.2983 20.0455 98.1712 15.1217 103.434 12.167C108.696 9.21229 114.917 8.46861 120.728 10.0996C126.538 11.7305 131.463 15.6026 134.418 20.8638C137.374 26.1251 138.118 32.3446 136.486 38.1542Z" fill="url(#paint29_linear_19_40)"/>
<path d="M504.64 394.47C501.561 394.495 498.514 395.105 495.661 396.266C475.845 405.175 454.513 410.233 432.806 411.168C424.868 411.596 416.939 410.183 409.639 407.039L404.072 403.986L407.035 409.014C407.035 409.014 421.222 434.689 396.259 495.377C394.964 498.616 394.377 502.096 394.539 505.58C394.701 509.065 395.608 512.475 397.199 515.58C398.791 518.685 401.029 521.413 403.763 523.58C406.497 525.748 409.664 527.304 413.051 528.145C415.053 528.611 417.101 528.851 419.157 528.863C424.943 528.888 430.545 526.835 434.945 523.079C439.345 519.322 442.25 514.112 443.132 508.395C448.168 482.334 444.211 455.337 431.908 431.817C448.182 440.555 466.415 445.004 484.886 444.744C492.765 444.72 500.63 444.09 508.412 442.859C511.738 442.336 514.918 441.123 517.748 439.299C520.578 437.475 522.995 435.079 524.844 432.266C527.282 428.599 528.678 424.339 528.885 419.941C529.091 415.543 528.101 411.172 526.018 407.292C523.935 403.413 520.838 400.172 517.058 397.914C513.277 395.656 508.954 394.465 504.551 394.47H504.64ZM508.322 441.243C480.589 446.68 451.824 441.727 427.508 427.328C441.91 451.639 446.864 480.398 441.426 508.125C440.865 511.24 439.659 514.203 437.885 516.825C436.112 519.446 433.81 521.668 431.128 523.348C428.445 525.028 425.441 526.129 422.308 526.581C419.175 527.032 415.982 526.824 412.934 525.97C409.886 525.115 407.05 523.633 404.609 521.619C402.167 519.605 400.173 517.102 398.756 514.273C397.338 511.443 396.527 508.348 396.376 505.187C396.224 502.026 396.735 498.868 397.876 495.916C423.557 433.612 408.561 408.296 408.561 408.296C408.561 408.296 433.883 423.288 496.2 397.612C499.199 396.412 502.42 395.862 505.648 396C508.876 396.137 512.038 396.959 514.925 398.41C517.811 399.862 520.356 401.91 522.391 404.419C524.427 406.928 525.905 409.841 526.73 412.964C527.563 416.038 527.738 419.253 527.242 422.4C526.747 425.546 525.593 428.552 523.855 431.222C522.117 433.891 519.835 436.164 517.159 437.891C514.482 439.617 511.471 440.76 508.322 441.243Z" fill="url(#paint30_linear_19_40)"/>
</g>
<path d="M716.325 610.185H765.06V621.795H716.325V610.185ZM717.675 660H704.175V565.5H770.865V577.245H717.675V660ZM888.418 660V565.5H901.918V660H888.418ZM1028.76 660V565.5H1039.83L1102.34 643.125H1096.53V565.5H1110.03V660H1098.96L1036.46 582.375H1042.26V660H1028.76ZM1222.56 660L1265.35 565.5H1278.72L1321.65 660H1307.47L1269.27 573.06H1274.67L1236.46 660H1222.56ZM1240.78 636.375L1244.43 625.575H1297.62L1301.53 636.375H1240.78ZM1434.29 660V565.5H1445.36L1507.87 643.125H1502.06V565.5H1515.56V660H1504.49L1441.99 582.375H1447.79V660H1434.29ZM1684.65 661.08C1677.45 661.08 1670.79 659.91 1664.67 657.57C1658.64 655.14 1653.38 651.765 1648.88 647.445C1644.47 643.035 1641 637.905 1638.48 632.055C1635.96 626.205 1634.7 619.77 1634.7 612.75C1634.7 605.73 1635.96 599.295 1638.48 593.445C1641 587.595 1644.51 582.51 1649.01 578.19C1653.51 573.78 1658.78 570.405 1664.81 568.065C1670.93 565.635 1677.59 564.42 1684.79 564.42C1692.08 564.42 1698.78 565.68 1704.9 568.2C1711.11 570.63 1716.38 574.275 1720.7 579.135L1711.92 587.64C1708.32 583.86 1704.27 581.07 1699.77 579.27C1695.27 577.38 1690.46 576.435 1685.33 576.435C1680.02 576.435 1675.07 577.335 1670.48 579.135C1665.98 580.935 1662.06 583.455 1658.73 586.695C1655.4 589.935 1652.79 593.805 1650.9 598.305C1649.1 602.715 1648.2 607.53 1648.2 612.75C1648.2 617.97 1649.1 622.83 1650.9 627.33C1652.79 631.74 1655.4 635.565 1658.73 638.805C1662.06 642.045 1665.98 644.565 1670.48 646.365C1675.07 648.165 1680.02 649.065 1685.33 649.065C1690.46 649.065 1695.27 648.165 1699.77 646.365C1704.27 644.475 1708.32 641.595 1711.92 637.725L1720.7 646.23C1716.38 651.09 1711.11 654.78 1704.9 657.3C1698.78 659.82 1692.03 661.08 1684.65 661.08ZM1850.79 606.27H1899.39V617.745H1850.79V606.27ZM1852.01 648.255H1907.09V660H1838.51V565.5H1905.2V577.245H1852.01V648.255Z" fill="#1E1E1E"/>
<defs>
<linearGradient id="paint0_linear_19_40" x1="586.712" y1="840.292" x2="1869.73" y2="-234.847" gradientUnits="userSpaceOnUse">
<stop stop-color="#E8E3D6"/>
<stop offset="0.11" stop-color="#DECCB7"/>
<stop offset="0.23" stop-color="#D7B99C"/>
<stop offset="0.34" stop-color="#D2AD8D"/>
<stop offset="0.43" stop-color="#D0A987"/>
<stop offset="0.73" stop-color="#E6E1D2"/>
<stop offset="0.8" stop-color="#DDCCB7"/>
<stop offset="0.88" stop-color="#D5B89C"/>
<stop offset="0.95" stop-color="#D0AC8D"/>
<stop offset="1" stop-color="#CEA887"/>
</linearGradient>
<linearGradient id="paint1_linear_19_40" x1="586.712" y1="840.292" x2="1869.73" y2="-234.847" gradientUnits="userSpaceOnUse">
<stop stop-color="#E8E3D6"/>
<stop offset="0.11" stop-color="#DECCB7"/>
<stop offset="0.23" stop-color="#D7B99C"/>
<stop offset="0.34" stop-color="#D2AD8D"/>
<stop offset="0.43" stop-color="#D0A987"/>
<stop offset="0.73" stop-color="#E6E1D2"/>
<stop offset="0.8" stop-color="#DDCCB7"/>
<stop offset="0.88" stop-color="#D5B89C"/>
<stop offset="0.95" stop-color="#D0AC8D"/>
<stop offset="1" stop-color="#CEA887"/>
</linearGradient>
<linearGradient id="paint2_linear_19_40" x1="586.712" y1="840.292" x2="1869.73" y2="-234.847" gradientUnits="userSpaceOnUse">
<stop stop-color="#E8E3D6"/>
<stop offset="0.11" stop-color="#DECCB7"/>
<stop offset="0.23" stop-color="#D7B99C"/>
<stop offset="0.34" stop-color="#D2AD8D"/>
<stop offset="0.43" stop-color="#D0A987"/>
<stop offset="0.73" stop-color="#E6E1D2"/>
<stop offset="0.8" stop-color="#DDCCB7"/>
<stop offset="0.88" stop-color="#D5B89C"/>
<stop offset="0.95" stop-color="#D0AC8D"/>
<stop offset="1" stop-color="#CEA887"/>
</linearGradient>
<linearGradient id="paint3_linear_19_40" x1="586.712" y1="840.292" x2="1869.73" y2="-234.848" gradientUnits="userSpaceOnUse">
<stop stop-color="#E8E3D6"/>
<stop offset="0.11" stop-color="#DECCB7"/>
<stop offset="0.23" stop-color="#D7B99C"/>
<stop offset="0.34" stop-color="#D2AD8D"/>
<stop offset="0.43" stop-color="#D0A987"/>
<stop offset="0.73" stop-color="#E6E1D2"/>
<stop offset="0.8" stop-color="#DDCCB7"/>
<stop offset="0.88" stop-color="#D5B89C"/>
<stop offset="0.95" stop-color="#D0AC8D"/>
<stop offset="1" stop-color="#CEA887"/>
</linearGradient>
<linearGradient id="paint4_linear_19_40" x1="586.712" y1="840.292" x2="1869.73" y2="-234.847" gradientUnits="userSpaceOnUse">
<stop stop-color="#E8E3D6"/>
<stop offset="0.11" stop-color="#DECCB7"/>
<stop offset="0.23" stop-color="#D7B99C"/>
<stop offset="0.34" stop-color="#D2AD8D"/>
<stop offset="0.43" stop-color="#D0A987"/>
<stop offset="0.73" stop-color="#E6E1D2"/>
<stop offset="0.8" stop-color="#DDCCB7"/>
<stop offset="0.88" stop-color="#D5B89C"/>
<stop offset="0.95" stop-color="#D0AC8D"/>
<stop offset="1" stop-color="#CEA887"/>
</linearGradient>
<linearGradient id="paint5_linear_19_40" x1="1274.26" y1="-131.251" x2="1274.26" y2="533.891" gradientUnits="userSpaceOnUse">
<stop stop-color="#D2AA85"/>
<stop offset="0.43" stop-color="#B67F53"/>
<stop offset="0.51" stop-color="#B88256"/>
<stop offset="0.58" stop-color="#BE8B61"/>
<stop offset="0.64" stop-color="#C89B73"/>
<stop offset="0.71" stop-color="#D6B18C"/>
<stop offset="0.75" stop-color="#E0C19F"/>
<stop offset="0.8" stop-color="#D9B793"/>
<stop offset="0.88" stop-color="#C89B73"/>
<stop offset="1" stop-color="#AC6F41"/>
</linearGradient>
<linearGradient id="paint6_linear_19_40" x1="1274.26" y1="-131.251" x2="1274.26" y2="533.891" gradientUnits="userSpaceOnUse">
<stop stop-color="#D2AA85"/>
<stop offset="0.43" stop-color="#B67F53"/>
<stop offset="0.51" stop-color="#B88256"/>
<stop offset="0.58" stop-color="#BE8B61"/>
<stop offset="0.64" stop-color="#C89B73"/>
<stop offset="0.71" stop-color="#D6B18C"/>
<stop offset="0.75" stop-color="#E0C19F"/>
<stop offset="0.8" stop-color="#D9B793"/>
<stop offset="0.88" stop-color="#C89B73"/>
<stop offset="1" stop-color="#AC6F41"/>
</linearGradient>
<linearGradient id="paint7_linear_19_40" x1="1274.26" y1="-131.251" x2="1274.26" y2="533.891" gradientUnits="userSpaceOnUse">
<stop stop-color="#D2AA85"/>
<stop offset="0.43" stop-color="#B67F53"/>
<stop offset="0.51" stop-color="#B88256"/>
<stop offset="0.58" stop-color="#BE8B61"/>
<stop offset="0.64" stop-color="#C89B73"/>
<stop offset="0.71" stop-color="#D6B18C"/>
<stop offset="0.75" stop-color="#E0C19F"/>
<stop offset="0.8" stop-color="#D9B793"/>
<stop offset="0.88" stop-color="#C89B73"/>
<stop offset="1" stop-color="#AC6F41"/>
</linearGradient>
<linearGradient id="paint8_linear_19_40" x1="1274.26" y1="-131.251" x2="1274.26" y2="533.891" gradientUnits="userSpaceOnUse">
<stop stop-color="#D2AA85"/>
<stop offset="0.43" stop-color="#B67F53"/>
<stop offset="0.51" stop-color="#B88256"/>
<stop offset="0.58" stop-color="#BE8B61"/>
<stop offset="0.64" stop-color="#C89B73"/>
<stop offset="0.71" stop-color="#D6B18C"/>
<stop offset="0.75" stop-color="#E0C19F"/>
<stop offset="0.8" stop-color="#D9B793"/>
<stop offset="0.88" stop-color="#C89B73"/>
<stop offset="1" stop-color="#AC6F41"/>
</linearGradient>
<linearGradient id="paint9_linear_19_40" x1="1274.26" y1="-131.251" x2="1274.26" y2="533.891" gradientUnits="userSpaceOnUse">
<stop stop-color="#D2AA85"/>
<stop offset="0.43" stop-color="#B67F53"/>
<stop offset="0.51" stop-color="#B88256"/>
<stop offset="0.58" stop-color="#BE8B61"/>
<stop offset="0.64" stop-color="#C89B73"/>
<stop offset="0.71" stop-color="#D6B18C"/>
<stop offset="0.75" stop-color="#E0C19F"/>
<stop offset="0.8" stop-color="#D9B793"/>
<stop offset="0.88" stop-color="#C89B73"/>
<stop offset="1" stop-color="#AC6F41"/>
</linearGradient>
<linearGradient id="paint10_linear_19_40" x1="238.672" y1="-136.099" x2="292.435" y2="625.193" gradientUnits="userSpaceOnUse">
<stop stop-color="#E8CEAD"/>
<stop offset="0.01" stop-color="#E7CCAB"/>
<stop offset="0.22" stop-color="#C19067"/>
<stop offset="0.32" stop-color="#B2794C"/>
<stop offset="0.44" stop-color="#BB875C"/>
<stop offset="0.61" stop-color="#CBA079"/>
<stop offset="0.72" stop-color="#BD8A60"/>
<stop offset="0.84" stop-color="#AC6F41"/>
</linearGradient>
<linearGradient id="paint11_linear_19_40" x1="278.45" y1="-7.54109" x2="252.241" y2="629.86" gradientUnits="userSpaceOnUse">
<stop stop-color="white"/>
<stop offset="0.17" stop-color="#E6D4C6"/>
<stop offset="0.26" stop-color="#DAC0AB"/>
<stop offset="0.33" stop-color="#DDC5B1"/>
<stop offset="0.42" stop-color="#E5D2C3"/>
<stop offset="0.52" stop-color="#F1E8E0"/>
<stop offset="0.61" stop-color="white"/>
<stop offset="0.7" stop-color="#F4ECE6"/>
<stop offset="0.85" stop-color="#DFC8B7"/>
</linearGradient>
<linearGradient id="paint12_linear_19_40" x1="422.659" y1="293.833" x2="486.042" y2="239.147" gradientUnits="userSpaceOnUse">
<stop offset="0.04" stop-color="#AC6F41" stop-opacity="0"/>
<stop offset="0.35" stop-color="#AC6F41" stop-opacity="0.49"/>
<stop offset="0.5" stop-color="#AC6F41" stop-opacity="0.7"/>
<stop offset="0.64" stop-color="#AC6F41" stop-opacity="0.53"/>
<stop offset="0.93" stop-color="#AC6F41" stop-opacity="0.11"/>
<stop offset="1" stop-color="#AC6F41" stop-opacity="0"/>
</linearGradient>
<linearGradient id="paint13_linear_19_40" x1="204.191" y1="321.035" x2="133.973" y2="332.62" gradientUnits="userSpaceOnUse">
<stop stop-color="#934A20"/>
<stop offset="0.13" stop-color="#954D22" stop-opacity="0.93"/>
<stop offset="0.36" stop-color="#9A5429" stop-opacity="0.73"/>
<stop offset="0.66" stop-color="#A26034" stop-opacity="0.41"/>
<stop offset="0.98" stop-color="#AC6F41" stop-opacity="0"/>
</linearGradient>
<linearGradient id="paint14_linear_19_40" x1="42.4725" y1="295.09" x2="113.848" y2="243.365" gradientUnits="userSpaceOnUse">
<stop offset="0.04" stop-color="#AC6F41" stop-opacity="0"/>
<stop offset="0.35" stop-color="#AC6F41" stop-opacity="0.49"/>
<stop offset="0.5" stop-color="#AC6F41" stop-opacity="0.7"/>
<stop offset="0.64" stop-color="#AC6F41" stop-opacity="0.53"/>
<stop offset="0.93" stop-color="#AC6F41" stop-opacity="0.11"/>
<stop offset="1" stop-color="#AC6F41" stop-opacity="0"/>
</linearGradient>
<linearGradient id="paint15_linear_19_40" x1="321.82" y1="191.22" x2="410.716" y2="194.274" gradientUnits="userSpaceOnUse">
<stop stop-color="#934A20"/>
<stop offset="0.13" stop-color="#954D22" stop-opacity="0.93"/>
<stop offset="0.36" stop-color="#9A5429" stop-opacity="0.73"/>
<stop offset="0.66" stop-color="#A26034" stop-opacity="0.41"/>
<stop offset="0.98" stop-color="#AC6F41" stop-opacity="0"/>
</linearGradient>
<linearGradient id="paint16_linear_19_40" x1="238.672" y1="-136.099" x2="292.436" y2="625.193" gradientUnits="userSpaceOnUse">
<stop stop-color="#E8CEAD"/>
<stop offset="0.01" stop-color="#E7CCAB"/>
<stop offset="0.22" stop-color="#C19067"/>
<stop offset="0.32" stop-color="#B2794C"/>
<stop offset="0.44" stop-color="#BB875C"/>
<stop offset="0.61" stop-color="#CBA079"/>
<stop offset="0.72" stop-color="#BD8A60"/>
<stop offset="0.84" stop-color="#AC6F41"/>
</linearGradient>
<radialGradient id="paint17_radial_19_40" cx="0" cy="0" r="1" gradientUnits="userSpaceOnUse" gradientTransform="translate(267.136 267.08) scale(204.64 204.597)">
<stop offset="0.22" stop-color="white" stop-opacity="0"/>
<stop offset="0.29" stop-color="white" stop-opacity="0.2"/>
<stop offset="0.45" stop-color="white" stop-opacity="0.63"/>
<stop offset="0.56" stop-color="white" stop-opacity="0.89"/>
<stop offset="0.61" stop-color="white"/>
<stop offset="0.7" stop-color="#F4ECE6"/>
<stop offset="0.85" stop-color="#DFC8B7"/>
</radialGradient>
<linearGradient id="paint18_linear_19_40" x1="234.81" y1="487.208" x2="290.918" y2="425.341" gradientUnits="userSpaceOnUse">
<stop offset="0.04" stop-color="#AC6F41" stop-opacity="0"/>
<stop offset="0.35" stop-color="#AC6F41" stop-opacity="0.49"/>
<stop offset="0.5" stop-color="#AC6F41" stop-opacity="0.7"/>
<stop offset="0.64" stop-color="#AC6F41" stop-opacity="0.53"/>
<stop offset="0.93" stop-color="#AC6F41" stop-opacity="0.11"/>
<stop offset="1" stop-color="#AC6F41" stop-opacity="0"/>
</linearGradient>
<linearGradient id="paint19_linear_19_40" x1="238.223" y1="112.667" x2="301.603" y2="48.7344" gradientUnits="userSpaceOnUse">
<stop offset="0.04" stop-color="#AC6F41" stop-opacity="0"/>
<stop offset="0.35" stop-color="#AC6F41" stop-opacity="0.49"/>
<stop offset="0.5" stop-color="#AC6F41" stop-opacity="0.7"/>
<stop offset="0.64" stop-color="#AC6F41" stop-opacity="0.53"/>
<stop offset="0.93" stop-color="#AC6F41" stop-opacity="0.11"/>
<stop offset="1" stop-color="#AC6F41" stop-opacity="0"/>
</linearGradient>
<linearGradient id="paint20_linear_19_40" x1="238.672" y1="-136.099" x2="292.436" y2="625.193" gradientUnits="userSpaceOnUse">
<stop stop-color="#E8CEAD"/>
<stop offset="0.01" stop-color="#E7CCAB"/>
<stop offset="0.22" stop-color="#C19067"/>
<stop offset="0.32" stop-color="#B2794C"/>
<stop offset="0.44" stop-color="#BB875C"/>
<stop offset="0.61" stop-color="#CBA079"/>
<stop offset="0.72" stop-color="#BD8A60"/>
<stop offset="0.84" stop-color="#AC6F41"/>
</linearGradient>
<radialGradient id="paint21_radial_19_40" cx="0" cy="0" r="1" gradientUnits="userSpaceOnUse" gradientTransform="translate(267.136 267.08) scale(204.64 204.597)">
<stop offset="0.22" stop-color="white" stop-opacity="0"/>
<stop offset="0.29" stop-color="white" stop-opacity="0.2"/>
<stop offset="0.45" stop-color="white" stop-opacity="0.63"/>
<stop offset="0.56" stop-color="white" stop-opacity="0.89"/>
<stop offset="0.61" stop-color="white"/>
<stop offset="0.7" stop-color="#F4ECE6"/>
<stop offset="0.85" stop-color="#DFC8B7"/>
</radialGradient>
<linearGradient id="paint22_linear_19_40" x1="345.436" y1="327.857" x2="336.64" y2="408.027" gradientUnits="userSpaceOnUse">
<stop stop-color="#934A20"/>
<stop offset="0.13" stop-color="#954D22" stop-opacity="0.93"/>
<stop offset="0.36" stop-color="#9A5429" stop-opacity="0.73"/>
<stop offset="0.66" stop-color="#A26034" stop-opacity="0.41"/>
<stop offset="0.98" stop-color="#AC6F41" stop-opacity="0"/>
</linearGradient>
<linearGradient id="paint23_linear_19_40" x1="191.889" y1="211.599" x2="196.915" y2="148.218" gradientUnits="userSpaceOnUse">
<stop stop-color="#934A20"/>
<stop offset="0.13" stop-color="#954D22" stop-opacity="0.93"/>
<stop offset="0.36" stop-color="#9A5429" stop-opacity="0.73"/>
<stop offset="0.66" stop-color="#A26034" stop-opacity="0.41"/>
<stop offset="0.98" stop-color="#AC6F41" stop-opacity="0"/>
</linearGradient>
<linearGradient id="paint24_linear_19_40" x1="238.672" y1="-136.099" x2="292.435" y2="625.193" gradientUnits="userSpaceOnUse">
<stop stop-color="#E8CEAD"/>
<stop offset="0.01" stop-color="#E7CCAB"/>
<stop offset="0.22" stop-color="#C19067"/>
<stop offset="0.32" stop-color="#B2794C"/>
<stop offset="0.44" stop-color="#BB875C"/>
<stop offset="0.61" stop-color="#CBA079"/>
<stop offset="0.72" stop-color="#BD8A60"/>
<stop offset="0.84" stop-color="#AC6F41"/>
</linearGradient>
<radialGradient id="paint25_radial_19_40" cx="0" cy="0" r="1" gradientUnits="userSpaceOnUse" gradientTransform="translate(267.136 267.08) scale(204.64 204.597)">
<stop offset="0.22" stop-color="white" stop-opacity="0"/>
<stop offset="0.29" stop-color="white" stop-opacity="0.2"/>
<stop offset="0.45" stop-color="white" stop-opacity="0.63"/>
<stop offset="0.56" stop-color="white" stop-opacity="0.89"/>
<stop offset="0.61" stop-color="white"/>
<stop offset="0.7" stop-color="#F4ECE6"/>
<stop offset="0.85" stop-color="#DFC8B7"/>
</radialGradient>
<linearGradient id="paint26_linear_19_40" x1="238.672" y1="-136.099" x2="292.435" y2="625.193" gradientUnits="userSpaceOnUse">
<stop stop-color="#E8CEAD"/>
<stop offset="0.01" stop-color="#E7CCAB"/>
<stop offset="0.22" stop-color="#C19067"/>
<stop offset="0.32" stop-color="#B2794C"/>
<stop offset="0.44" stop-color="#BB875C"/>
<stop offset="0.61" stop-color="#CBA079"/>
<stop offset="0.72" stop-color="#BD8A60"/>
<stop offset="0.84" stop-color="#AC6F41"/>
</linearGradient>
<linearGradient id="paint27_linear_19_40" x1="465.311" y1="-13.2867" x2="439.82" y2="605.531" gradientUnits="userSpaceOnUse">
<stop stop-color="white"/>
<stop offset="0.17" stop-color="#E6D4C6"/>
<stop offset="0.26" stop-color="#DAC0AB"/>
<stop offset="0.33" stop-color="#DDC5B1"/>
<stop offset="0.42" stop-color="#E5D2C3"/>
<stop offset="0.52" stop-color="#F1E8E0"/>
<stop offset="0.61" stop-color="white"/>
<stop offset="0.7" stop-color="#F4ECE6"/>
<stop offset="0.85" stop-color="#DFC8B7"/>
</linearGradient>
<linearGradient id="paint28_linear_19_40" x1="76.0552" y1="375.887" x2="50.5645" y2="994.705" gradientUnits="userSpaceOnUse">
<stop stop-color="white"/>
<stop offset="0.17" stop-color="#E6D4C6"/>
<stop offset="0.26" stop-color="#DAC0AB"/>
<stop offset="0.33" stop-color="#DDC5B1"/>
<stop offset="0.42" stop-color="#E5D2C3"/>
<stop offset="0.52" stop-color="#F1E8E0"/>
<stop offset="0.61" stop-color="white"/>
<stop offset="0.7" stop-color="#F4ECE6"/>
<stop offset="0.85" stop-color="#DFC8B7"/>
</linearGradient>
<linearGradient id="paint29_linear_19_40" x1="76.2348" y1="-17.8653" x2="49.3978" y2="634.259" gradientUnits="userSpaceOnUse">
<stop stop-color="white"/>
<stop offset="0.17" stop-color="#E6D4C6"/>
<stop offset="0.26" stop-color="#DAC0AB"/>
<stop offset="0.33" stop-color="#DDC5B1"/>
<stop offset="0.42" stop-color="#E5D2C3"/>
<stop offset="0.52" stop-color="#F1E8E0"/>
<stop offset="0.61" stop-color="white"/>
<stop offset="0.7" stop-color="#F4ECE6"/>
<stop offset="0.85" stop-color="#DFC8B7"/>
</linearGradient>
<linearGradient id="paint30_linear_19_40" x1="465.49" y1="371.308" x2="438.653" y2="1023.43" gradientUnits="userSpaceOnUse">
<stop stop-color="white"/>
<stop offset="0.17" stop-color="#E6D4C6"/>
<stop offset="0.26" stop-color="#DAC0AB"/>
<stop offset="0.33" stop-color="#DDC5B1"/>
<stop offset="0.42" stop-color="#E5D2C3"/>
<stop offset="0.52" stop-color="#F1E8E0"/>
<stop offset="0.61" stop-color="white"/>
<stop offset="0.7" stop-color="#F4ECE6"/>
<stop offset="0.85" stop-color="#DFC8B7"/>
</linearGradient>
</defs>
</svg>
